<svg xmlns="http://www.w3.org/2000/svg" viewBox="0 0 402 226.22"><defs><style>.cls-1{fill:#fff;}.cls-2{fill:#010000;}.cls-3{fill:#020201;}.cls-4{fill:#010101;}.cls-5{fill:#090909;}.cls-6{fill:#030303;}.cls-7{fill:#f90;}.cls-8{fill:#fefefd;}.cls-9{fill:#fefefe;}.cls-10{fill:#fdfcfb;}.cls-11{fill:#070400;}.cls-12{fill:#080500;}</style></defs><title>Asset 3</title><g id="Layer_2" data-name="Layer 2"><g id="Layer_1-2" data-name="Layer 1"><path class="cls-1" d="M201,226.13q-89,0-178.08.09a23.66,23.66,0,0,1-13.83-4.47,17.55,17.55,0,0,1-6-6.75A27.05,27.05,0,0,1,0,202.64q.15-89.52,0-179A26.07,26.07,0,0,1,3,11.66a19.52,19.52,0,0,1,8.19-8.47A24.13,24.13,0,0,1,23.46.08q155,.06,310.07,0c15.36,0,30.72.38,46.07,0,7.61-.2,17.91,6,20.42,13.36A29.33,29.33,0,0,1,402,23.12c0,13.44,0,26.88,0,40.32q0,69.6.05,139.19A25.88,25.88,0,0,1,398.93,215a18,18,0,0,1-6,6.76,23.94,23.94,0,0,1-13.85,4.43q-89-.19-178.07-.08"/><path class="cls-2" d="M201.14,6.2H378.7a16.51,16.51,0,0,1,7,1.07,15.84,15.84,0,0,1,9.4,10.22,15.67,15.67,0,0,1,.78,4.17c.12,4.31.1,8.63.1,12.95q0,84,0,168a18.27,18.27,0,0,1-1.71,8.33c-3,6.06-7.91,9.14-14.5,9.21-15,.16-30.07.09-45.11.09q-155.24,0-310.48,0A19,19,0,0,1,14.51,218c-5.42-3-7.87-7.78-8.28-13.67-.3-4.3-.12-8.63-.12-12.95q0-83.73,0-167.47a20.48,20.48,0,0,1,2.07-9.22A13.6,13.6,0,0,1,14,8.52a19,19,0,0,1,9.57-2.38q88.79.14,177.55.06"/><path class="cls-1" d="M201.45,13.32q89.51,0,179,0c1.88,0,3.75-.3,5.55.92a9.63,9.63,0,0,1,4.4,7.58c.14,1.75.06,3.51.06,5.27q0,86.4,0,172.8c0,1.6.08,3.21-.05,4.79a14.17,14.17,0,0,1-.78,3.72,8.06,8.06,0,0,1-8.07,5.51c-9.76,0-19.52,0-29.28,0H23.52c-.64,0-1.28,0-1.92,0-4.67,0-7.69-2.46-8.71-7.28a17.33,17.33,0,0,1-.33-3.14c-.07-3.55,0-7.1,0-10.65V34.45c0-3.74-.07-7.49,0-11.23a13.41,13.41,0,0,1,.35-3c1.13-4.63,3.94-6.86,8.53-6.87,9.76,0,19.52,0,29.28,0Z"/><path class="cls-3" d="M252.45,130.32H148.33c-1.27,0-2.56.07-3.83,0-3.25-.25-4.95-1.92-5.26-5.11-.09-1-.05-1.92-.05-2.88q0-27.11,0-54.21a27.62,27.62,0,0,1,.07-2.88c.34-3.22,2-4.82,5.3-4.95,4.79-.19,9.59-.33,14.38-.34q64.53-.16,129.06-.27c21.11,0,42.22-.21,63.33-.21a62.72,62.72,0,0,1,10.4,1A4.49,4.49,0,0,1,365.9,65c0,1.12,0,2.24,0,3.36v53.25c0,.8,0,1.6,0,2.4.24,5.18-1.87,5.32-5.55,6.2a19.23,19.23,0,0,1-4.3.11H252.45Z"/><path class="cls-4" d="M260.45,23.58h108.4a42,42,0,0,1,4.2.09,4,4,0,0,1,3.58,3.43c.18,1.42.12,2.88.18,4.31.08,2.24.12,4.48.29,6.71a11.85,11.85,0,0,1-1.1,6.06c-.28.6-1.24,1.37-1.76,1.28-3-.5-6,.3-9,.22-13.73-.37-27.46-.57-41.2-.82-2.56,0-5.12,0-7.67,0l-166.93-.1c-1.34,0-2.68,0-4,0a2.78,2.78,0,0,1-2.6-2.17,29.55,29.55,0,0,1-.82-5.18c-.09-2.55,0-5.12.16-7.67.17-3.51,2-5.47,5.59-5.85,1.1-.12,2.23-.06,3.35-.07l78.19-.14c10.39,0,20.78,0,31.18,0Z"/><path class="cls-4" d="M120.93,75.28c-.67,25.59-21.23,45.44-46.53,45a45.66,45.66,0,1,1,46.53-44.95"/><path class="cls-5" d="M317.45,190H349c1.12,0,2.24-.06,3.35.05,2.31.23,3.68,1.44,3.61,3.07s-1.45,2.71-3.78,2.94c-1.11.1-2.23,0-3.35,0H323.5q-19.15,0-38.3,0a25.93,25.93,0,0,1-4.74-.4,2.85,2.85,0,0,1-2.22-2.76,3,3,0,0,1,2.37-2.66,26.62,26.62,0,0,1,4.28-.29q16.28,0,32.56,0Z"/><path class="cls-6" d="M315.45,155.13q-16.51,0-33,0a27.91,27.91,0,0,1-4.29-.23,2.8,2.8,0,0,1-2.34-2.65,2.85,2.85,0,0,1,2.64-2.87,30.44,30.44,0,0,1,3.82-.18q33.75,0,67.49,0a26.58,26.58,0,0,1,3.34.14,2.84,2.84,0,0,1,2.54,2.46,2.93,2.93,0,0,1-2.38,3.13,22,22,0,0,1-3.81.21h-34Z"/><path class="cls-6" d="M315.45,175.54H282.87a32.36,32.36,0,0,1-4.29-.22,2.71,2.71,0,0,1-2.21-2.72,2.74,2.74,0,0,1,1.79-2.59,5.22,5.22,0,0,1,1.84-.39c1-.07,1.92,0,2.87,0H348.5a30.42,30.42,0,0,1,3.82.12,3,3,0,0,1,2.69,2.87,2.83,2.83,0,0,1-2.69,2.81,32.44,32.44,0,0,1-3.82.13H315.45Z"/><path class="cls-7" d="M359.78,67.14c.88,5.69.62,11.42.63,17.14q0,17.52,0,35a24.27,24.27,0,0,1-.16,3.82,1.79,1.79,0,0,1-1.2,1.15,18.67,18.67,0,0,1-3.35.14q-100.77,0-201.53,0c-1.55,0-3.22.48-4.63-.67a13.75,13.75,0,0,1-1-5.61c-.33-14.37.69-28.76-.68-43.12-.43-4.54,1.54-6.48,6.12-6.72,4.8-.26,9.52.86,14.34.86Q259,69,349.6,69.11c3.53,0,7,0,10.18-2"/><path class="cls-8" d="M359.78,66.72c-.15,1.09-.3,2.18-.5,3.6h-3.85l-166.81-.21q-12,0-24-.17c-3.35,0-6.7-.32-10-.47-1.11,0-2.23-.08-3.35,0a1.7,1.7,0,0,0-1.83,1.78c0,1.43,0,2.87,0,4.31q.32,22.75.59,45.51a10.45,10.45,0,0,1-.53,2.28c-1.11,0-2.24,0-3.34-.1a1.38,1.38,0,0,1-.94-.87,7,7,0,0,1-.1-1.9q0-26.85,0-53.69c0-3,.06-3,2.89-3,4.79,0,9.58.13,14.38.14q61.83.13,123.67.26,32.61.09,65.2.3c2.23,0,4.46.21,6.69.37a1.81,1.81,0,0,1,1.78,1.86"/><path class="cls-9" d="M259.45,28.32H366.37a4.51,4.51,0,0,0,3.36,1c2,.06,2.15.2,2.15,2.27,0,2.24-.09,4.48-.14,6.72,0,1.2-.75,1.65-1.85,1.65-5.12,0-10.35.69-15.34-.11-7.84-1.25-15.64-.82-23.44-.73-59.35.75-118.71.15-178.06.45-5.94,0-5.39.61-5.45-5.36,0-1,0-1.92,0-2.88,0-1.68.33-2,1.84-2.1a31.4,31.4,0,0,1,3.36.06H259.45Z"/><path class="cls-7" d="M91,77.41c6.2-.17,12.38-1.29,18.6-.63,6.44.68,7.07-.55,5.24,6.88-4,16.39-14.41,26.65-30.76,30.62a40.86,40.86,0,0,1-19.44-.34c-3.63-.88-6.95-2.26-9.53-5.08a4,4,0,0,1-1.08-.82l.08.11c-6.75-6.36-9.26-14.76-11.1-23.42-.91-4.32.18-5.47,4.58-5.8A22.55,22.55,0,0,1,52.4,79c13,1.8,25.75-1,38.62-1.58"/><path class="cls-1" d="M89.71,37.29c-1.66,3.32-3.28,6.43-4.78,9.59C81.11,55,77.19,63,73.64,71.2c-1,2.26-2.18,2.73-4.32,2.68-4.79-.11-9.59,0-14.38,0-5.6,0-11.2.08-16.79.12-.32,0-.64,0-1,0-1.51-.06-2-.58-1.86-2.06,1.37-14.62,8.38-25.68,21.29-32.65,10.56-5.7,21.64-6,33.09-2"/><path class="cls-1" d="M95.45,73.83c-5.28,0-10.56,0-15.84,0-1.88,0-2.14-.51-1.23-2.35,4.25-8.59,8.54-17.16,12.79-25.75.78-1.58,1.47-3.19,2.21-4.78.52-1.14,1-1.31,2.21-.57,11.42,7.24,17.88,17.54,19.15,31,.12,1.26-.32,1.79-1.55,1.91s-2.23.16-3.35.17H95.45Z"/><path class="cls-10" d="M91,77.41c-2.32.47-4.62,1-7,1.38C75.7,80,67.32,81.13,58.85,80.94c-3.35-.08-6.68-.38-10-.57-.64,0-1.28,0-1.91,0-2.54,0-3.4,0-2.77,3.26,1.59,8.08,4.18,15.69,9.09,22.4a9.86,9.86,0,0,1,.89,2.13,26.69,26.69,0,0,1-3.24-1.9A39.38,39.38,0,0,1,35.4,77.67a5.61,5.61,0,0,1,1.51-.5q26.34,0,52.68.16c.48,0,1,0,1.43.08"/><path class="cls-10" d="M54.05,108l1.08.82L54.05,108"/><path class="cls-11" d="M254.45,93.62H170.53a28,28,0,0,1-4.3-.2,2.3,2.3,0,0,1-2-1.87c-.19-.88.81-2,2.06-2.25a17,17,0,0,1,2.86-.22c3.35-.06,6.71-.12,10.07-.12q80.07,0,160.16,0a25.59,25.59,0,0,1,3.82.12,4.68,4.68,0,0,1,2.05,1.08,1.62,1.62,0,0,1-.05,2.5,4.93,4.93,0,0,1-2.09,1,34.37,34.37,0,0,1-4.31.11q-42.19,0-84.39,0Z"/><path class="cls-11" d="M253.45,112.1h-75.3c-3.36,0-6.72,0-10.08-.1a6.43,6.43,0,0,1-2.78-.5,2.73,2.73,0,0,1-1.14-1.89,1.86,1.86,0,0,1,1-1.43,12.41,12.41,0,0,1,3.7-.78c3.19-.13,6.39-.1,9.59-.1l125.66,0q16.55,0,33.09,0c1.58,0,3.27-.34,4.64.71a2.71,2.71,0,0,1,1.08,1.9,3,3,0,0,1-1.34,1.76,2.51,2.51,0,0,1-1.19.34c-.78.06-1.55.07-2.33.07H253.45Z"/><path class="cls-12" d="M196.45,81.94c-9.09,0-18.19,0-27.28,0a17,17,0,0,1-4.18-.63,2.16,2.16,0,0,1-1.12-1.39c-.24-.88.41-1.51,1.13-1.88a5,5,0,0,1,1.81-.52,27.43,27.43,0,0,1,2.87-.07q26.55-.09,53.11-.15a29.21,29.21,0,0,1,4.29.13,7.15,7.15,0,0,1,2.61,1.07,1.44,1.44,0,0,1,0,2.48,8.25,8.25,0,0,1-2.6,1.06,19.57,19.57,0,0,1-3.34.1H196.45Z"/></g></g></svg>