<svg xmlns="http://www.w3.org/2000/svg" viewBox="0 0 119.78 169.71"><defs><style>.cls-1{fill:#fff;}.cls-2{fill:#cdcdcd;}.cls-3{fill:#fefefe;}.cls-4{fill:#fdfdfd;}.cls-5{fill:#fc9700;}.cls-6{fill:#f4f7f7;}.cls-7{fill:#f3f3f3;}.cls-8{fill:#312a2a;}.cls-9{fill:#f4f5f5;}.cls-10{fill:#f5f6f6;}.cls-11{fill:#e7ecec;}.cls-12{fill:#ebecec;}.cls-13{fill:#f8f9f9;}.cls-14{fill:#dee1e1;}.cls-15{fill:#f8f8f8;}.cls-16{fill:#ebf0f0;}.cls-17{fill:#e3e9e9;}.cls-18{fill:#dce4e4;}.cls-19{fill:#373030;}.cls-20{fill:#474747;}.cls-21{fill:#d2d4d4;}.cls-22{fill:#312b2b;}.cls-23{fill:#3d3131;}.cls-24{fill:#b2b8b8;}.cls-25{fill:#f9fefe;}.cls-26{fill:#b5bbbb;}.cls-27{fill:#afb2b2;}.cls-28{fill:#4f5959;}.cls-29{fill:#7c8787;}.cls-30{fill:#889191;}.cls-31{fill:#110f0f;}.cls-32{fill:#100d0d;}.cls-33{fill:#101111;}.cls-34{fill:#1c1818;}.cls-35{fill:#1c1713;}.cls-36{fill:#231a10;}.cls-37{fill:#150d00;}.cls-38{fill:#edf4f4;}.cls-39{fill:#e3ebeb;}.cls-40{fill:#d98300;}.cls-41{fill:#f19200;}</style></defs><title>Asset 1</title><g id="Layer_2" data-name="Layer 2"><g id="Layer_1-2" data-name="Layer 1"><path class="cls-1" d="M37,19.8C39.7,8.5,46.33.77,58.35.06,73.22-.81,81.19,7.79,84.26,22.27c2.46-2.54,4.43-4.57,6.39-6.61A9.51,9.51,0,0,1,95,12.83a5.77,5.77,0,0,1,7.15,4,6.08,6.08,0,0,1-.09,3.25,33.92,33.92,0,0,1-2.29,5.25c-2,4-4.17,7.91-6.3,11.83a3.11,3.11,0,0,0-.32,3.16c3,5.56,4,11.74,5.58,17.76.67,2.6.73,2.64,3.56,2.77s5.42.24,8.13.42c4.75.31,7.55,2.82,8.6,8.11a17.69,17.69,0,0,1,.21,3.34c0,5.75-.07,11.5,0,17.25.06,3.4-.77,6.33-3.5,8.5a2,2,0,0,0-.91,2.43c1.59,5.58,1.57,11.37,2,17.08.85,11,1.43,22,2.15,33,.21,3.18.73,6.35.75,9.53,0,5.32-2.17,7.88-7.49,8.76a43.69,43.69,0,0,1-7.15.48q-43.15,0-86.3,0c-4,0-8,.05-12,0-3.21,0-5-1.3-6-4.43A15.35,15.35,0,0,1,0,160.6c.07-4.78.23-9.57.62-14.34q.88-11,2.13-21.92c.73-6.34,1.67-12.65,2.52-19,.17-1.27.25-2.55.52-3.79a2.58,2.58,0,0,0-1.11-2.86A12.32,12.32,0,0,1,0,88.19c.11-5.26.08-10.54.24-15.8a14.22,14.22,0,0,1,.88-4.67c1.27-3.21,3.66-5.24,7.24-5.38,3.35-.13,6.71-.1,10.07-.07a2.1,2.1,0,0,0,2.33-1.84c.7-3,1.41-5.9,2.18-8.83,1.22-4.63,2.55-9.25,5.24-13.29C29,37,28.74,36,28.06,34.8c-2-3.63-3.92-7.31-5.8-11a23.55,23.55,0,0,1-1.66-4c-1.24-4.29,2.26-7.74,6.9-7.08a8.38,8.38,0,0,1,4.8,3c1.31,1.38,2.71,2.68,4.08,4,.09.08.31,0,.62.06"/><path d="M101,96.1a17.08,17.08,0,0,0,.12,2.06c.52,2.41.61,2.46,3.17,2.56,5.37.23,6,.73,6.62,6,.53,4.75.92,9.53,1.26,14.31.71,10,1.33,20.07,2,30.11.19,2.7.7,5.39.79,8.09.16,4.74-.67,5.54-5.47,5.74-2.07.09-4.15.1-6.23.1q-43.14,0-86.29,0c-3.2,0-6.39-.16-9.59-.13A2.13,2.13,0,0,1,5.12,163a17.56,17.56,0,0,1-.35-4.27c.36-6.54.69-13.08,1.28-19.6.66-7.31,1.53-14.6,2.43-21.89.57-4.59,1.34-9.16,2.07-13.73.31-2,1.1-2.61,3.25-2.74,1-.06,1.92,0,2.88,0,1.74-.1,3.17-2.76,2.24-4.26a1.66,1.66,0,0,0-1.23-.58c-2.55-.09-5.11-.13-7.66-.12a4.22,4.22,0,0,1-4.31-3.14A11.89,11.89,0,0,1,5,88.89c0-5.11.08-10.23.15-15.34a14.07,14.07,0,0,1,.13-1.43c.45-3.59,1.53-4.65,5.27-4.79,3-.11,6.07,0,9.11,0,1.41,0,3.21.47,4.13-.22s1-2.53,1.33-3.9c.74-2.94,1.41-5.89,2.12-8.84,1.32-5.47,3-10.77,6.49-15.33,1-1.25.65-2.28,0-3.51-2.12-3.93-4.17-7.9-6.25-11.86a18.64,18.64,0,0,1-1.28-2.57c-.31-.91-1.69-2-.18-2.83,1.21-.68,2,.51,2.79,1.3,3,3.14,5.87,6.32,8.81,9.48a36.19,36.19,0,0,0,2.68,2.72,1.42,1.42,0,0,0,1.28,0,1.54,1.54,0,0,0,.75-1.08c0-.78-.18-1.57-.21-2.36-.09-2.07-.21-4.15-.16-6.22C42.19,13.24,50,5.47,59.05,5a17.82,17.82,0,0,1,16.71,8.45c3.13,4.85,4.54,10.18,3.1,16a3.29,3.29,0,0,0-.16,1.86,3.62,3.62,0,0,0,1.58,1.61,1.81,1.81,0,0,0,1.63-.37c1.26-1.21,2.39-2.57,3.58-3.86,2.82-3.05,5.63-6.11,8.48-9.12a6.43,6.43,0,0,1,1.9-1.38c.32-.15.9.09,1.28.3a.83.83,0,0,1,.22.8A30.88,30.88,0,0,1,96,22.36c-2.53,4.8-5,9.62-7.64,14.38-1,1.8-1.3,3.23-.07,5.25,3,5,4.19,10.66,5.52,16.26.44,1.86.78,3.75,1.24,5.61s.75,2.14,2.58,2.19c3.2.09,6.4.06,9.59.14,5.74.13,7.06,1.43,7.11,7.11s0,11.18,0,16.77c0,.48,0,1,0,1.44-.22,2.77-1.44,4.06-4.19,4.21-1.91.11-3.83,0-5.75.07-1.09,0-2.18.19-3.39.31"/><path class="cls-2" d="M26.68,118.84l-1.43,0c-1.6.07-2.32.58-2,1.25.44,1,1.32.67,2,.72,1.27.08,2.54,0,3.82,0H90.13a24.79,24.79,0,0,0,2.86,0c1-.12,2.53.62,2.59-1.1,0-1.25-1.6-.57-2.2-1.26a4.1,4.1,0,0,1-.26-.41c2.11-3.84,4.49-7.46,8.39-9.76l.11-.12a1.33,1.33,0,0,0,.72-.82,5.4,5.4,0,0,1,.73-.63c1.45-1,2.14-.77,2.26.67.35,4,.59,8,1,11.94.8,7.79,1.7,15.56,2.53,23.34.58,5.38,1.12,10.76,1.7,16.38-1.11.09-2,.25-3,.25H10.73c-1,0-1.37-.67-1.3-1.57.16-2.23.28-4.47.54-6.69q2.2-18.8,4.46-37.58c.27-2.22.49-4.45.92-6.64.23-1.2,1.17-.66,1.89-.38,4.13,3.37,8.4,6.65,9.44,12.38"/><path class="cls-3" d="M59.26,115.86c-2.71,0-5.42,0-8.12-.06-.44,0-.86-.7-1.26-1.11-.09-.09-.07-.3-.08-.46-.07-2.55.43-5.28-.35-7.59a45,45,0,0,0-4.91-9.75,21.93,21.93,0,0,1-3.79-14.4,58.56,58.56,0,0,0,0-9.55,5.86,5.86,0,0,1,2.58-5.27,1.87,1.87,0,0,1,2.19-.3c2.28,1.13,4.56,2.25,6.8,3.45a4.75,4.75,0,0,1,1.81,1.49c1.63,2.73,3.25,5.48,4.65,8.33a8.59,8.59,0,0,1,.3,3.28c.18,5.89.33,11.78.49,17.67,1.57,4.79,2.23,9.56-.3,14.27"/><path class="cls-4" d="M79.41,69.17c0,6.52-.09,13-.09,19.54a11.53,11.53,0,0,1-1.5,5.93,61.51,61.51,0,0,1-4.19,6.9,14.86,14.86,0,0,0-3.35,10.09c.2,4.73.24,4.27-4.43,4.28-1.43,0-2.86-.06-4.29-.09-2-4.38-1.53-8.82-.31-13.28.24-6,.5-12.09.71-18.14.06-1.6-.11-3.13,1.75-4.06.75-.37,1.19-1.44,1.67-2.25,1-1.65,1.93-3.3,2.78-5a10.91,10.91,0,0,1,4.69-5.19C76,64.5,77,64.7,79.41,69.17"/><path class="cls-5" d="M46.71,23.84a12.94,12.94,0,0,1,4.34-10.39c4.35-3.92,9.21-4.68,14.65-2.56,7.91,3.07,13.15,16.79,4,24.24-1,.81-1.79,2.26-3.49,1.7a32.59,32.59,0,0,1,1.09-3.52c.69-1.61,1.59-3.12,2.31-4.72A2,2,0,0,0,68.29,26c-1.34-.36-3.13.52-2.91,1.65.68,3.33-1.31,5.79-2.48,8.5-.73,1.69-2.35,1.89-3.37.49s-2-3.24-3.14-4.8c-.78-1.1.15-2.21-.17-3.22A2.66,2.66,0,0,0,54.72,27a2.59,2.59,0,0,0-2.11.63A2.37,2.37,0,0,0,52,29.7c1,2,2.29,3.82,3.43,5.73a.82.82,0,0,1-.14.78,1.39,1.39,0,0,1-.83.11,1,1,0,0,1-.44-.18c-4.74-2.8-7.74-6.62-7.26-12.3"/><path class="cls-6" d="M62.28,59.4q6.51-7.34,13-14.66C77.2,42.58,79,40.37,81,38.23a6.12,6.12,0,0,1,1.52-.95c1,1.28.35,2.45-.37,3.5C76.22,49.32,70.25,57.8,64,66c-1.4,1.85-3.17,2.28-4.76.22-6.9-8.94-14-17.78-19.41-27.74.11-.77.35-1.39,1.33-1.09C46.21,43.3,51.29,49.2,56.43,55c1.14,1.3,2.49,2.41,3.74,3.61,1.13-1,.17,4,2.11.75"/><path class="cls-7" d="M80.35,51.54a45.58,45.58,0,0,1,3.52-6.15,22.38,22.38,0,0,1,1.42,2.79,376.78,376.78,0,0,1,12.2,47.58c.14.79.17,1.59.34,2.37.47,2.2-.31,3.69-2.62,4.6a72.83,72.83,0,0,1-1.28-7.44c-1.7-12-3.82-23.89-7.69-35.4a56.53,56.53,0,0,0-2.9-6.52c-.35-.72-1-1.27-1.92-.66-.87.08-1.35-.19-1.07-1.17"/><path class="cls-8" d="M40.3,38.22C47,48,54,57.64,61.22,67.26a8.54,8.54,0,0,0,1.27-1.1Q72.26,52.6,82,39a5.77,5.77,0,0,0,.53-1.72l-.12.09a.78.78,0,0,1,.83-.35.82.82,0,0,1,.25.86c.22.68.81,1.52.6,2a39,39,0,0,1-2.45,4.23c-.75-.09-.74.63-1.06,1L80.6,45c-3.07,3.77-5.27,8.13-8.2,12-2.28,4-5.44,7.4-8,11.24-1.86,2.82-3.89,2.26-5.77.09a82.82,82.82,0,0,1-9.38-13.09C46.92,52.35,45.18,49,43,46l.07.1c-.53-.78-.87-1.74-1.94-2-1.5-1.13-2-2.86-2.53-4.5-.11-.33.63-.93,1-1.41s.48-.35.69,0"/><path class="cls-9" d="M49.65,54.74c3.79,5,7.59,10,11.17,14.73a4,4,0,0,0,.94.14.74.74,0,0,0,.37-.29l9.76-12.78c.94-.15,1.4.19,1.19,1.19q-4.71,8.51-9.42,17c-.14.25-.48.4-.95.78-.3-1.06-.56-2-.87-3.11L60,76.33,49.7,57.66A6.23,6.23,0,0,0,49,56.54a1,1,0,0,1-.35-.72c-.31-1,.19-1.16,1-1.08"/><path class="cls-10" d="M96.78,72h13c.3.39.62.62.63.86.24,8,1.25,7.18-6.75,7.27-1.73,0-3.45-.23-5.18-.36-.46-1.64-1-3.27-1.36-4.92A27.6,27.6,0,0,1,96.78,72"/><path class="cls-11" d="M61.59,50.1c-3.56.06-6.77-.83-8.84-3.86a80.31,80.31,0,0,0-6.73-8,8.33,8.33,0,0,1-1-1.55.46.46,0,0,1,.08-.44c.2-.16.54-.41.68-.34A17.79,17.79,0,0,1,47.33,37,36.85,36.85,0,0,0,52,40.31c1.91,1,2.85,2.08,2.83,4.36,0,2,1.12,2.93,3,3,2.54.07,5.1,0,7.65-.09,1.74-.1,2.39-.88,2.63-2.78a13.43,13.43,0,0,0,.09-1.9,2.27,2.27,0,0,1,1-2C71.15,39.49,73,38,75,36.68a1.49,1.49,0,0,1,1.29.11,1,1,0,0,1,.35,1.61c-2.62,3.21-5.21,6.45-8,9.53a7.25,7.25,0,0,1-3.27,1.75,19.73,19.73,0,0,1-3.79.42"/><path class="cls-12" d="M16.17,80.24c-.16,0-.32,0-.48,0-1.71-.17-3.52.37-5.11-.7-.1-2.05-.28-4.1-.25-6.15,0-.38.83-1.06,1.3-1.07,3.51-.1,7-.08,10.54,0,.31,0,.63.57.9.9.09.1.05.3,0,.46-.25,6.17-.64,6.54-6.94,6.58"/><path class="cls-13" d="M98.49,82.3c2.42,0,4.16-.06,5.9,0,1.89.08,3.77.29,5.65.44,1.13,2.26.42,4.65.41,7,0,.4-.69,1-1.19,1.16a5,5,0,0,1-1.89.09c-2.38-.09-4.76-.2-7.13-.3C99,88.22,99,85.53,98.49,82.3"/><path class="cls-14" d="M40.11,93.93c-1.92-1.3-2.89-2.61-2.88-4.68,0-7.15,0-14.31-.07-21.46a2.45,2.45,0,0,1,.9-2.05c1.54-1.36,3-2.79,4.76-4.4,2.47,1.39,5,2.75,7.39,4.19a1.4,1.4,0,0,1,.55,1.22c-.25.8-.95.52-1.52.29-1.32-.54-2.61-1.16-4-1.64a2.4,2.4,0,0,0-2.64.53c-.79.79-1.58,1.58-2.38,2.34a3.27,3.27,0,0,0-1,2.56c0,6.2,0,12.4,0,18.6a27.85,27.85,0,0,0,.82,4.5"/><path class="cls-15" d="M21.62,82.52c-.47,2.86-.89,5.46-1.35,8.28C19,90.88,18,91,16.9,91c-7.32,0-7.43-.07-6.55-7.23.06-.48.64-1.24,1-1.27a56.41,56.41,0,0,1,10.23,0"/><path class="cls-16" d="M72.87,64.31,77,61.44a4.67,4.67,0,0,1,.73.4c1.66,1.49,3.93,2.71,4.79,4.57s.28,4.33.28,6.53c0,5.27,0,10.55,0,15.82a14.61,14.61,0,0,1-.49,2.74.79.79,0,0,1-.3.34c-.25-.16-.65-.34-.67-.54-.08-1-.06-1.91-.06-2.87,0-5.75,0-11.5,0-17.25,0-1.07.31-2.27-.72-3.12-1.9-2.61-5.34-2-7.68-3.75"/><path class="cls-17" d="M19.1,105.54a2.79,2.79,0,0,1,3.32.95c2.31,2.75,4.77,5.37,7.16,8.07,1.09,1.23,1.08,1.25-.84,2.7-4.64-2.73-8.27-6.3-9.64-11.72"/><path class="cls-18" d="M92.09,117a2.86,2.86,0,0,1-.93,0c-1.39-.57-1.66-1.15-.9-2,1.87-2.16,3.79-4.27,5.69-6.4.84-.94,1.67-1.91,2.54-2.82.67-.69,1.47-.34,2.24-.2a1,1,0,0,1,.19.95.89.89,0,0,0-.39.7c-2.17,3.82-4.34,7.64-8.44,9.82"/><path class="cls-19" d="M19.1,105.54c.12.45.11,1,.38,1.32,3.06,3.48,6.17,6.93,9.26,10.4a2.15,2.15,0,0,1-2.06,1.58c-1.92-2.49-3.86-5-5.77-7.47-1.24-1.62-2.45-3.27-3.67-4.91l1.86-.92"/><path class="cls-20" d="M61.25,102.54q.16,6.64.31,13.28l-2.3,0c.07-3.34.15-6.67.22-10,0-1.42.06-2.85.08-4.27l1.69,1"/><path class="cls-21" d="M33.1,54.24a23.39,23.39,0,0,1,4.2-11c2.3,2.36,2.31,2.37,1,4.13-1.72,2.29-3.46,4.56-5.19,6.85"/><path class="cls-22" d="M92.09,117l8.44-9.82,1,1.14a50.57,50.57,0,0,1-8.4,9.77c-.34-.36-.68-.73-1-1.09"/><path class="cls-23" d="M72.87,64.31c.31.26.69.8.93.74a5.56,5.56,0,0,0,1.63-.86c1.08-.72,2-.7,2.81.42s1.54,2.3,2.31,3.45l-1.14,1.11A1.42,1.42,0,0,1,79,69c-1-.9-1.83-2.3-3-2.57-.89-.22-2.11.93-3.19,1.48-1.3-2.16-1.3-2.16,0-3.57"/><path class="cls-24" d="M73.08,57.73c-.4-.4-.79-.8-1.19-1.19,2.62-3.76,5.23-7.52,7.88-11.26.13-.19.55-.17.83-.26a11.35,11.35,0,0,1-.79,2.14c-2.21,3.54-4.48,7.05-6.73,10.57"/><path class="cls-25" d="M60.7,43.59h-.59a2,2,0,0,1-1.61-3,1.52,1.52,0,0,1,1.07-.7,36.61,36.61,0,0,1,3.77.12c1,.08,1.21.8,1.23,1.65s-.24,1.58-1.17,1.74a25.4,25.4,0,0,1-2.7.18"/><path class="cls-26" d="M49.65,54.74l-1,1.08c-1.9-3-3.8-6-5.67-9-.13-.2,0-.59.07-.89,1.47.47,1.92,1.91,2.71,3,1.38,1.87,2.61,3.84,3.9,5.77"/><path class="cls-27" d="M80.35,51.54l1.07,1.17c-1.25,1.8-2.49,3.6-3.77,5.37a.77.77,0,0,1-.76.16.83.83,0,0,1-.24-.77c1.2-2,2.46-4,3.7-5.93"/><path class="cls-28" d="M62.28,59.4V64c-.91-1.26-1.38-1.66-1.52-2.16-.29-1-.4-2.12-.59-3.18l2.11.75"/><path class="cls-29" d="M82.52,36.49c1-1.31,2-2.63,3.08-4,.94,1.08.28,1.69-.1,2.29-.65,1.06-1.37,2.08-2.06,3.11a.53.53,0,0,1-.12-.74,2.39,2.39,0,0,1-.8-.65"/><path class="cls-30" d="M40.3,38.22H40l-.34,0-2.46-4.46.29-.3a8.21,8.21,0,0,1,3.67,4l-.81.79"/><path class="cls-26" d="M41.17,44.1l.7-.42,1.24,2.4c-1.38.05-1.19-1.43-1.94-2"/><path class="cls-24" d="M80.53,45.11c.13-1.48.13-1.48,1.06-1l-1.06,1"/><path class="cls-22" d="M100.92,106.46c-.07-.32-.13-.63-.19-.95.86.33.86.33.19.95"/><path class="cls-6" d="M82.52,36.49l.8.65-1,.23c0-.29.1-.58.16-.88"/><path class="cls-22" d="M102.34,107.37l-.72.82.72-.82"/><path class="cls-30" d="M37.15,33.73l-.45-.92.75.62Z"/><path class="cls-26" d="M49,56.54l.71,1.12L49,56.54"/><path class="cls-31" d="M22.28,144.67c1.62-.2,3.11,0,4.07,1.64a5.54,5.54,0,0,1,.41,5.45,6.19,6.19,0,0,1-3.84,3.36,5,5,0,0,1-6.45-5.44c.5-3.21,2.81-5.71,5.81-5"/><path class="cls-32" d="M35.73,144.66c3.05,0,4.69,1.57,4.77,4.56a6,6,0,0,1-5,6.05,5,5,0,0,1-5.77-5.35c.26-3.37,2.42-5.27,6-5.26"/><path class="cls-33" d="M100,145.79q-.59-5.68-1.18-11.36c-.23-2.19.31-3.7,1.31-3.54,1.66.26,1.72,1.71,1.83,3,.34,3.95.63,7.91.84,11.87a6.61,6.61,0,0,1-.45,3.27c-.66,1.27,0,3.4-2.18,3.75-1-1.24-.32-2.7-.51-4a21,21,0,0,1,0-2.86l.36,0"/><path class="cls-34" d="M92.91,146.21a15,15,0,0,1,.65-3,1.94,1.94,0,0,1,1.43-1,1.84,1.84,0,0,1,1.49.88c.74,2.21.68,4.37-1,6.23-.39.43-1.4.36-1.6-.18-.39-1-.69-2.07-1-2.94"/><path class="cls-35" d="M50.58,86.37a50.45,50.45,0,0,1,0,5.22,3.5,3.5,0,0,1-3.22,3,4.06,4.06,0,0,1-3.8-2.33,5,5,0,0,1-.39-1.83c0-2.85-.1-5.71,0-8.56a3.79,3.79,0,0,1,3.62-3.7,3.85,3.85,0,0,1,3.87,3.46,5,5,0,0,1,.07.94c0,1.27,0,2.54,0,3.81Z"/><path class="cls-36" d="M76.91,86.56c0,1.43.09,2.86,0,4.27a3.82,3.82,0,0,1-3.57,3.77,3.44,3.44,0,0,1-3.72-3.46,67.29,67.29,0,0,1,.11-9.94A3.5,3.5,0,0,1,75.5,79a4,4,0,0,1,1.32,2.37,45.23,45.23,0,0,1,.06,5.21h0"/><path class="cls-37" d="M55.29,20.62c.19-1.47.36-3,.62-4.58.13-.76.33-1.77,1.3-1.71.68,0,1.33.66,2,1,.13.07.18.26.29.38.71.79.81,2.41,2.14,2.25.8-.09,1.44-1.16,2.23-1.69,1.43-1,2.92-.5,3.15,1.32s.88,2.38,2.65,2.47a1.74,1.74,0,0,1,1.68,2.32c-.1.39-.59,1-.85,1-1.54-.15-3.07-.44-4.59-.73a1.23,1.23,0,0,1-.71-.6c-.68-1.47-1.4-1.83-2.83-.62s-2.25,0-3.14-1c-.75-.88-1.16-.75-1.47.43-.5,1.84-1,3.47-3.52,2.72-.31-.09-.79.28-1.16.48-1.41.77-1.93.6-2.19-.68-.48-2.36.26-3.09,2.79-2.74.31.05.62.11.93.13a3.35,3.35,0,0,0,.7-.15"/><path class="cls-38" d="M24.41,148.65a13.93,13.93,0,0,1-.84,2.31,2.34,2.34,0,0,1-2.95.71,2,2,0,0,1-.84-2.46,4.34,4.34,0,0,1,.86-1.63c.62-.75,1.5-1.33,2.44-.73a6.43,6.43,0,0,1,1.33,1.8"/><path class="cls-39" d="M32.63,150.2a19,19,0,0,1,.8-2,2.74,2.74,0,0,1,2.7-1.56c1,.28,1.67,1.87,1.28,3.23s-1.61,2.38-2.78,2c-.76-.24-1.33-1.07-2-1.66"/><path class="cls-40" d="M45.32,86.45c0-1.44-.09-2.88,0-4.31A1.49,1.49,0,0,1,47,80.7a1.53,1.53,0,0,1,1.53,1.54c.08,2.86.09,5.74,0,8.61a1.43,1.43,0,0,1-1.6,1.42,1.55,1.55,0,0,1-1.54-1.52c-.1-1.43,0-2.87,0-4.3h0"/><path class="cls-41" d="M74.62,86.18c0,1.57,0,3.15,0,4.73,0,.81-1,1.5-1.67,1.17a2,2,0,0,1-1-1.31c-.1-2.84-.06-5.68,0-8.52a1.3,1.3,0,0,1,.32-.86,2,2,0,0,1,1.14-.63c.38,0,1,.43,1.07.74.26,1.54.35,3.11.51,4.67Z"/></g></g></svg>