<svg xmlns="http://www.w3.org/2000/svg" viewBox="0 0 63.58 177.8"><defs><style>.cls-1{fill:#fff;}.cls-2{fill:#fd9800;}.cls-3{fill:#fefefe;}.cls-4{fill:#ccc;}.cls-5{fill:#cbcccc;}.cls-6{fill:#f8fafa;}.cls-7{fill:#fb9701;}.cls-8{fill:#f4f4f3;}.cls-9{fill:#f7f8f8;}.cls-10{fill:#f2f3f3;}.cls-11{fill:#f5f6f6;}.cls-12{fill:#eff0f0;}.cls-13{fill:#fbfbfb;}.cls-14{fill:#f5f8f8;}.cls-15{fill:#f6f8f8;}.cls-16{fill:#f4f9f9;}.cls-17{fill:#fafbfb;}.cls-18{fill:#eaebeb;}.cls-19{fill:#dd8500;}.cls-20{fill:#f9fdfd;}.cls-21{fill:#eff3f3;}.cls-22{fill:#dfe7e7;}.cls-23{fill:#f2f0eb;}.cls-24{fill:#e5e7e7;}.cls-25{fill:#f59000;}.cls-26{fill:#e2e6e6;}.cls-27{fill:#dfe2e2;}.cls-28{fill:#f1f0e5;}.cls-29{fill:#f5f0e4;}.cls-30{fill:#d0d0d0;}.cls-31{fill:#d3d9cb;}.cls-32{fill:#b8b7b7;}.cls-33{fill:#090805;}.cls-34{fill:#231400;}.cls-35{fill:#262424;}.cls-36{fill:#0b0909;}.cls-37{fill:#201d1d;}.cls-38{fill:#151111;}.cls-39{fill:#869b9b;}</style></defs><title>Asset 2</title><g id="Layer_2" data-name="Layer 2"><g id="Layer_1-2" data-name="Layer 1"><path class="cls-1" d="M16,30.62C14.3,28.29,12.6,26,11,23.59S8,18.88,6.6,16.47c-1.72-3-3.36-6-5-9A23.12,23.12,0,0,1,.27,4.4C-.68,1.79,1-.3,3.75,0A63.83,63.83,0,0,1,11.3,1.26,99,99,0,0,1,45.65,17.07a47.51,47.51,0,0,1,9.16,8.06,1.63,1.63,0,0,0,1.49.54,6.18,6.18,0,0,1,3.85,1.08,7.84,7.84,0,0,1,3.21,8.18,57.92,57.92,0,0,1-1.91,5.66C59.15,46.8,56.77,53,54.51,59.21A7.67,7.67,0,0,1,49,64a6.62,6.62,0,0,1-6.27-1.45c-.28-.23-.55-.48-.84-.74-.52.61-.3,1.18-.31,1.7,0,4.56,0,9.11,0,13.67,0,2.47-.18,4.94-.37,7.41a4,4,0,0,0,.45,2.27,27.13,27.13,0,0,1,1.41,3.29,9.94,9.94,0,0,1-.28,6.8,2.49,2.49,0,0,0,.12,2.27,11.23,11.23,0,0,1,.67,2c.18.6.34,1.22.57,1.8.46,1.19,1,2.35.66,3.68a1.45,1.45,0,0,0,.37,1.32,27.86,27.86,0,0,1,4.56,11A117,117,0,0,1,51.79,134c.46,6.06.67,12.12.55,18.2-.06,2.7-.34,5.41-.51,8.11a3.8,3.8,0,0,1-1.91,3.14,5.73,5.73,0,0,1-.84.46,1.86,1.86,0,0,0-1.16,1.66c-.27,1.82-.75,3.61-.9,5.43-.25,3.15-2.37,4.71-4.92,5.55a26.71,26.71,0,0,1-12.09,1c-1.26-.17-2.5-.48-3.75-.77a7.11,7.11,0,0,1-5.58-5c-.5-1.52-1.08-3-1.54-4.54a2.5,2.5,0,0,0-1.61-1.89,7.23,7.23,0,0,1-1.48-.78,4.89,4.89,0,0,1-2.28-3.74,193.38,193.38,0,0,1-1.36-31.55A63.67,63.67,0,0,1,15.29,112a15.44,15.44,0,0,1,3-5.94,2.44,2.44,0,0,0,.63-1.74,5.11,5.11,0,0,1,.88-2.93,5.78,5.78,0,0,0,.74-2.72c-.86-.23-1.63-.4-2.37-.64a4.78,4.78,0,0,1-3.33-3.18c-.41-1.37-.76-2.77-1-4.17a4,4,0,0,0-1.56-2.8,7.08,7.08,0,0,1-2.62-5.44,12.83,12.83,0,0,1,.74-5.42,6,6,0,0,1,2.75-3.49A2,2,0,0,0,14.34,72,10.42,10.42,0,0,1,15,70.15a4.76,4.76,0,0,1,4-3.32,8.35,8.35,0,0,1,1.66-.17c1.82,0,1.76-.2,1.76-1.72,0-2.31,0-4.63,0-6.95,0-1.22-.1-1.28-1.4-1.33-1,0-2.07-.11-3.1-.18a3.08,3.08,0,0,1-2.61-1.84,13.27,13.27,0,0,1-1.53-4c-.29-1.89-.8-3.76-.92-5.66A24.8,24.8,0,0,1,16,30.62"/><path d="M39.29,69.85c-.15,4.56-.29,9.11-.46,13.66a14.07,14.07,0,0,0-.24,3.06A10.65,10.65,0,0,0,40,89.05a8.55,8.55,0,0,1,.3,7.84c-.55,1.17-1,2.17.18,3.2a1.52,1.52,0,0,1,.5,1.06c-.07,1.52.71,2.73,1.33,4a2.4,2.4,0,0,1-.1,2.09,1.16,1.16,0,0,0,.11,1.34c3.42,4,4.71,8.81,5.59,13.81.77,4.4,1.15,8.86,1.54,13.31a183.09,183.09,0,0,1,.44,18.44c0,2-.33,4-.47,6a2,2,0,0,1-1,1.57,1.68,1.68,0,0,1-.62.35c-1.84.28-2,1.69-2.25,3.15-.3,2.05-.69,4.09-1,6.14a2.89,2.89,0,0,1-1.25,1.94,9.2,9.2,0,0,1-3.9,1.71,27.36,27.36,0,0,1-11.64-.12c-.46-.11-.92-.25-1.38-.38a4.89,4.89,0,0,1-3.46-3.35c-.63-1.9-1.33-3.77-1.92-5.67a2.47,2.47,0,0,0-1.89-1.92,6.34,6.34,0,0,1-1.89-1,2.46,2.46,0,0,1-1-1.81,186.05,186.05,0,0,1-1.34-32.26,58.2,58.2,0,0,1,2.58-15.07A13.55,13.55,0,0,1,21,107a1.47,1.47,0,0,0,.43-1.52,2.54,2.54,0,0,1,.89-2.78,1.05,1.05,0,0,0,.36-.8,5.79,5.79,0,0,1,1.84-4.75.74.74,0,0,0,.15-.62.69.69,0,0,0-.52-.35c-1.12,0-2.24,0-3.36,0-2.49.08-3.7-1.12-4.13-3.4-.31-1.65-.66-3.29-1-4.94A1.06,1.06,0,0,0,15,87c-2.6-1.06-3.09-3.25-3-5.71a12,12,0,0,1,.39-2.6c.43-1.52,1.17-2.83,2.94-3.1.58-.09.77-.45.9-1,.25-1,.57-2,.83-3a2.93,2.93,0,0,1,3-2.28c1.19-.09,2.4,0,3.6,0,1,0,1.18-.19,1.18-1.08q0-6.35,0-12.7c0-.84-.27-1.09-1.2-1.1-1.36,0-2.72,0-4.08.06A2.45,2.45,0,0,1,17,52.81,20.87,20.87,0,0,1,15.3,46.1a23.77,23.77,0,0,1,.67-9,14.92,14.92,0,0,1,2.46-5.41c.6-.78.58-.82,0-1.65-1.2-1.69-2.41-3.38-3.66-5A120.72,120.72,0,0,1,6.5,11.48Q5,8.87,3.64,6.22A16.11,16.11,0,0,1,2.72,4c-.41-1.18-.18-1.54,1-1.38A64.11,64.11,0,0,1,11,3.82,95.28,95.28,0,0,1,49.18,23.13a45.71,45.71,0,0,1,4.49,4.63c.53.59.95,1,1.81.71a3.79,3.79,0,0,1,4.28,1.36A5.15,5.15,0,0,1,61,35c-.53,1.59-1.11,3.16-1.7,4.73C57,45.76,54.71,51.8,52.53,57.89a6.84,6.84,0,0,1-3,3.56A4.39,4.39,0,0,1,43,58.31a9.41,9.41,0,0,1,0-1.91,1.63,1.63,0,0,0-1.07-1.68,3.35,3.35,0,0,0-2.33-.2.7.7,0,0,0-.43.48,9.67,9.67,0,0,0-.05,1.43V69.85h.17"/><path class="cls-2" d="M29.17,54.56l6.7-.12c.58,0,.81.29.84.91,0,.31,0,.63,0,.95l.15,27.52c0,.3,0,.61-.05,1.06a23,23,0,0,0-3.35-1.42,24.42,24.42,0,0,0-3.54-.39c1.06-1.33.88-2.75.56-4.3a39.67,39.67,0,0,1-1.08-9c1.76-3.18.28-6.55.53-9.82.1-1.16.18-2.4-1-3.19a1.8,1.8,0,0,1,.27-2.18"/><path class="cls-3" d="M45.14,55.54c.1-.29.22-.66.36-1,2.58-6.87,5.2-13.71,7.73-20.6A5.06,5.06,0,0,1,56,30.79a1.42,1.42,0,0,1,1.56.21,3.16,3.16,0,0,1,.94,3.65q-3,7.55-6,15.09c-.91,2.3-1.76,4.62-2.65,6.93a7.69,7.69,0,0,1-.84,1.7,1.76,1.76,0,0,1-3.21-.4,20.73,20.73,0,0,1-.57-2.43"/><path class="cls-4" d="M20.1,44.74c.57.54.31,1.6,1.25,1.93A4.31,4.31,0,0,0,22,44.21c.3-2.12.6-4.25.93-6.37a5.14,5.14,0,0,1,.39-1.06,2.15,2.15,0,0,1,.32,0,.35.35,0,0,1,.21.1A189.88,189.88,0,0,0,37.67,51.35c-.28.61-.73.44-1.09.43-2.47,0-4.94-.1-7.41-.08-1.82,0-3.65.22-5.48.26-1.59,0-3.18,0-4.77-.07-.1,0-.19-.22-.29-.33.73-.75,1.73-.54,2.72-.65-2.21-2.16-2.49-3.65-1.25-6.17"/><path class="cls-5" d="M28.68,86.06a3.46,3.46,0,0,1,3.21-.34,8.58,8.58,0,0,1,6,5.41,6.13,6.13,0,0,1-.77,5.71,4.47,4.47,0,0,1-4.12,2,6.51,6.51,0,0,1-5.37-2.62c-.12-1.34-.64-2.61-.53-4,.25-2.85,1.36-5,4.27-6-.93.33-1.85.67-2.67-.2"/><path class="cls-6" d="M29.55,29.89c.58-2.23,1.23-4.45,1.73-6.7.31-1.39.4-2.83.57-4.25a1.51,1.51,0,0,0-.78-1.6,88.84,88.84,0,0,0-9.52-5.47c-1.88-.87-3.77-1.72-5.64-2.59a42.52,42.52,0,0,0-8.1-2.83,1.87,1.87,0,0,1-1.4-.8c-.06-.13-.16-.33-.11-.41s.27-.15.42-.17a1.58,1.58,0,0,1,.47.07A127.28,127.28,0,0,1,32.88,15.35c2.88,1.56,2.53,1.59,1.54,4.2q-2.16,5.7-4.34,11.38c-.94.05-.65-.54-.53-1"/><path class="cls-7" d="M27.15,169.33c.28.27.56.54.82.82s.67.17,1-.1c1.38-1.3.57-3.34,1.63-4.74a9.17,9.17,0,0,1,1.16-.08c.93,0,1.09.13,1.11,1.1a6.68,6.68,0,0,0,.93,3.09c1.31.62,1.4-.59,1.81-1.25.58-.94.37-2.23,1.36-3a2,2,0,0,1,.43-.18c.42-.08.88-.07.82.51a6.45,6.45,0,0,0,.29,3.75,4.47,4.47,0,0,0,1.44-3A2.16,2.16,0,0,1,42,164.14a8.36,8.36,0,0,0,.85-.17,10.5,10.5,0,0,1-.06,1.17c-.35,1.87-.73,3.74-1.08,5.62a1.06,1.06,0,0,1-.89,1c-4.48.9-9,1.31-13.45,0-.07,0-.12-.1-.18-.15-.23-.74-.69-1.47,0-2.22"/><path class="cls-8" d="M29.93,69.72A62.89,62.89,0,0,0,32,82.6l-2.06.47-2.46.48c0-.73-.08-1.41-.07-2.09q0-11.08.07-22.16c0-1.27-.06-2.54-.07-3.81,0-1,.13-1.1,1.34-1.05a2.39,2.39,0,0,1,.46.12c0,.73,0,1.46,0,2.19a2.62,2.62,0,0,1,.62,2c0,3.65.11,7.31.09,11"/><path class="cls-9" d="M31.15,134.06a39.25,39.25,0,0,1-11.43-1c-.46-.11-.92-.25-1.38-.37a.75.75,0,0,1-.62-.87c.16-2.55.22-5.11.5-7.65a77.47,77.47,0,0,1,2.28-11.26A9.21,9.21,0,0,1,23,108.4a1.11,1.11,0,0,1,.85-.09c.11,0,.24.43.19.61a14.72,14.72,0,0,1-.57,1.57,61.79,61.79,0,0,0-3.41,13.44c-.25,1.66-.38,3.33-.64,5a1.88,1.88,0,0,0,1.12,2.14,17.61,17.61,0,0,0,5.6,2c1.57.26,3.17.36,4.76.53.26.06.33.21.22.44"/><path class="cls-10" d="M17.75,134.75c2.95.2,2.63.56,2.21,2.64a47.12,47.12,0,0,0-.57,14.27c.18,1.58.44,3.15.56,4.74a3,3,0,0,0,1.38,2.37c.91.64,1.86,1.23,2.81,1.79.66.39,1.36.71,2,1.05-.1.2-.12.3-.15.3a17.89,17.89,0,0,1-7.18-1.48,1,1,0,0,1-.63-1.12c.35-4.78-.17-9.55-.3-14.32-.07-2.86-.19-5.73-.26-8.6a15.19,15.19,0,0,1,.1-1.64"/><path class="cls-11" d="M41.66,148.48c-.14-2.88-.29-6.07-.43-9.26,0-.64,0-1.28,0-1.91,0-.9.23-1.47.52-1.35a1.52,1.52,0,0,1,.8,1.37c.11.79.16,1.59.23,2.38a121.37,121.37,0,0,1,.71,16.73,6.84,6.84,0,0,0,0,1.43,1.19,1.19,0,0,0,.46.75c.52.37,1.11.63,1.66.95a.4.4,0,0,1,0,.73,12.17,12.17,0,0,1-1.53.66c-3.4,1.12-2.81,1-2.7-1.88.12-3.43.15-6.86.23-10.6"/><path class="cls-12" d="M42.57,133.17c-1.08.05-1.38-.22-1.42-.84-.14-2.14-.22-4.29-.4-6.43a59.92,59.92,0,0,0-2.76-14,5.5,5.5,0,0,1-.26-1.4.74.74,0,0,1,.67-.83c.24,0,.47-.09.71-.12a1.19,1.19,0,0,1,1.42.91,3.34,3.34,0,0,1,.1.94c-.24,5.7.65,11.28,1.62,16.85.14.77.06,1.76.51,2.25s1.46-.15,2.22-.22c.47-.05,1-.18,1.17.45s.07,1.23-.68,1.5c-1.11.41-2.25.76-2.9,1"/><path class="cls-13" d="M20.1,44.74c0,1,0,2-.06,3.08a2.22,2.22,0,0,0,1,2c.44.33.89.64,1.32,1a.51.51,0,0,1,.13.41.41.41,0,0,1-.31.25c-1.19,0-2.37,0-3.56.07a5.18,5.18,0,0,1-.3-.89,42.8,42.8,0,0,1-.27-10A19.25,19.25,0,0,1,19.56,35c.29-.63.68-1.2,1-1.81,1,.61,1.33,1.2.93,2.25a22.89,22.89,0,0,0-1.42,9.35"/><path class="cls-14" d="M52.39,30.69c-.61,1.29-1.2,2.58-2,4.18a16.81,16.81,0,0,1-.54-1.93,11.24,11.24,0,0,0-3-5.88,28.16,28.16,0,0,0-8.06-6.28,19.62,19.62,0,0,1-2.25-1.34c-.48-.32-.4-.84-.2-1.29.07-.17.35-.38.5-.35a2.52,2.52,0,0,1,.85.39A75.43,75.43,0,0,1,49,26.67a18.54,18.54,0,0,1,3.4,4"/><path class="cls-15" d="M33.06,103.77a20.59,20.59,0,0,1-5.81-.81,8.92,8.92,0,0,1-1.32-.54c-1.05-.54-1.24-1-.83-2.14a6.77,6.77,0,0,1,.8-1.44.66.66,0,0,1,.61-.13,4.43,4.43,0,0,1,.76.57c2.95,2.25,6.12,2.92,9.62,1.36a1.25,1.25,0,0,1,1.76,1.2,1,1,0,0,1-.43.78,5.66,5.66,0,0,1-1.75.71c-1.25.23-2.52.33-3.41.44"/><path class="cls-16" d="M23.56,103.71a19.84,19.84,0,0,0,3.43,1.5A20.58,20.58,0,0,0,38.78,105c.84-.29,1.18-.2,1.42.32a1.27,1.27,0,0,1-.43,1.68,6.51,6.51,0,0,1-1.76.69,9,9,0,0,1-2.14.25,42,42,0,0,1-8.81-.68,6,6,0,0,1-3-1.36,1.7,1.7,0,0,1-.49-2.15"/><path class="cls-17" d="M28.48,86h3.24c-.27.33-.36.55-.53.63-2.86,1.41-4,4.37-3.36,7.66a5.18,5.18,0,0,1,.25,1.14c0,.26-.3.5-.47.75-2.05-2-2.23-4.49-1.77-7.06A3.41,3.41,0,0,1,28.68,86"/><path class="cls-18" d="M23.13,127.32a3,3,0,0,1-.66-2.64A54.19,54.19,0,0,1,24.89,115a11.43,11.43,0,0,1,1-1.9.72.72,0,0,1,.65-.12.67.67,0,0,1,.27.57,5.4,5.4,0,0,1-.4,1.37,31.53,31.53,0,0,0-2.14,8c-.11.63-.2,1.26-.36,1.88s-.45,1.5-.77,2.52"/><path class="cls-19" d="M18.86,89.71a5.62,5.62,0,0,1-.2-5.08c.82-1.93.47-3.94.07-5.89a8.8,8.8,0,0,1,0-3.54.43.43,0,0,1,.25-.31c.12,0,.35.08.37.17a13.6,13.6,0,0,1,.81,4.19c-.09,2.08-.12,4.15-.08,6.23a12.42,12.42,0,0,1-.68,3.74c-.05.19-.32.32-.51.49"/><path class="cls-11" d="M21.57,76.8c-.36-1.51-.7-3-1.05-4.41,3.34-.64,3.6-.49,4.24,2.52a4.83,4.83,0,0,1,.12.93,9.82,9.82,0,0,1-.06,1,8.08,8.08,0,0,1-3.25,0"/><path class="cls-20" d="M25,79V85.1c-.42,0-1,.1-1.5.1-1,0-1.05-.07-1.09-1.1,0-1.36-.07-2.71-.09-4.06,0-.88.11-1,.89-1.06.54,0,1.08,0,1.79,0"/><path class="cls-21" d="M20.55,93.52,22,87.43a.81.81,0,0,1,.84-.69,4.86,4.86,0,0,1,1.13.19.44.44,0,0,1,.11.4A11.33,11.33,0,0,0,23.53,93c0,.38-.22.56-.58.57-.7,0-1.41,0-2.4,0"/><path class="cls-22" d="M38.22,140.23a2.79,2.79,0,0,1-2.64,2.59,2.18,2.18,0,0,1-2.1-2.4,2.63,2.63,0,0,1,2.45-2.48,2.36,2.36,0,0,1,2.29,2.29"/><path class="cls-23" d="M27.15,169.33c.06.45.15.91.17,1.36a5,5,0,0,1-.13.86,1.42,1.42,0,0,1-1.45-1c-.56-1.72-1.18-3.43-1.76-5.15-.19-.58.05-.83.73-.78.16,0,.31.05.47.05a1,1,0,0,1,1.1,1c.23,1.24.58,2.45.87,3.68"/><path class="cls-24" d="M34,129.73a3,3,0,0,1-.07-2.08,1.7,1.7,0,0,1,2.22-1.2c.22.06.44.16.66.24a2.1,2.1,0,0,1,1.53,2.75,2.3,2.3,0,0,1-2.72,1.67,3.23,3.23,0,0,1-.82-.43c-.05-1,1-.81,1.37-1.38s0-1-.68-1a.78.78,0,0,0-.54.44,5.76,5.76,0,0,1-.27.73c-.16.25-.35.43-.68.3"/><path class="cls-25" d="M17.49,79.82a6.9,6.9,0,0,1-.37,3.68c-.16.62-.72.76-1.28.4a1.34,1.34,0,0,1-.7-1.15c0-.85.06-1.71.09-2.56.71-.42,1.4-.89,2.26-.37"/><path class="cls-26" d="M37.24,27.48a1.57,1.57,0,1,1-3.13-.18,1.77,1.77,0,0,1,1.53-1.54,1.76,1.76,0,0,1,1.6,1.72"/><path class="cls-27" d="M27.39,21A1.77,1.77,0,0,1,29,22.75a1.67,1.67,0,0,1-1.64,1.42,1.8,1.8,0,0,1-1.52-1.59A1.69,1.69,0,0,1,27.39,21"/><path class="cls-28" d="M36.94,165.19a10.15,10.15,0,0,1-1.28,4.08,1.27,1.27,0,0,1-1.6.69c-.14-.05-.2-.35-.29-.54.2-.07.5-.08.59-.22a6.87,6.87,0,0,0,.93-2.91c.14-1.24.17-1.24,1.65-1.1"/><path class="cls-29" d="M30.57,165.31a16.66,16.66,0,0,1,0,2.12c-.13,1.11-.41,2.17-1.63,2.62a9.62,9.62,0,0,0-.2-4c-.19-.76.05-1,.9-.93a5,5,0,0,1,.93.22"/><path class="cls-30" d="M28.86,117.48c.26.33.67.62.67.9a5.34,5.34,0,0,1-.35,1.81c-.15.42-.52.93-1,.7a1.76,1.76,0,0,1-.78-1,2.13,2.13,0,0,1,.57-1.94c.18-.21.54-.26.92-.42"/><path class="cls-31" d="M17.49,79.82a3.54,3.54,0,0,1-2.26.37,6.46,6.46,0,0,1,.14-1.4A1,1,0,0,1,16.45,78a1,1,0,0,1,1,.85,4.86,4.86,0,0,1,0,.94"/><path class="cls-32" d="M29.55,29.89c.17.35.35.69.53,1-.39,1.2-.76,2.4-1.18,3.59-.06.18-.33.28-.51.42-.09-.19-.26-.38-.27-.57a2.73,2.73,0,0,1,.17-.93c.4-1.19.83-2.37,1.26-3.55"/><path class="cls-9" d="M31.15,134.06c-.07-.14-.15-.29-.22-.44.63,0,1.27-.08,1.9-.09,2.14,0,4.28.16,6.5,0-.27.16-.53.45-.81.46-2.45.07-4.91.08-7.37.11"/><path class="cls-1" d="M34,129.73l.53-.58a2.51,2.51,0,0,1,2.25.51,1.08,1.08,0,0,1-1.1.57c-.38,0-.72,0-.88.45a1,1,0,0,1-.8-1"/><path class="cls-33" d="M29.93,69.72a9.11,9.11,0,0,1-.67-2.26c-.07-3.57,0-7.14,0-10.71,1.06-.07,1.3,0,1.36.76,0,.48,0,1,0,1.43.08,2.08.2,4.15.21,6.22a25,25,0,0,1-.3,3.56c-.05.36-.39.67-.6,1"/><path class="cls-34" d="M31.27,59.18a5.38,5.38,0,0,1,.36-1.29.86.86,0,0,1,1.5,0,2.66,2.66,0,0,1-.45,3,.49.49,0,0,1-.8-.13,15,15,0,0,1-.61-1.6"/><path class="cls-35" d="M25.68,42.81c-.17.61-.14,1.4-.9,1.76-.44.21-1-.83-1-1.87s.53-1.66,1.11-1.5.89.78.81,1.61"/><path class="cls-36" d="M35.33,92.63a4.09,4.09,0,0,1-1.09,2.87,2.37,2.37,0,0,1-3,.36c-.33-.19-.71-.48-.54-.92.09-.25.42-.43.67-.58s.47-.11.68-.21A1.45,1.45,0,0,0,32.74,92a12.62,12.62,0,0,0-1-1.32,1,1,0,0,1,0-1.31,1.15,1.15,0,0,1,1.5-.19,4.46,4.46,0,0,1,2.12,3.45"/><path class="cls-37" d="M37.19,140.67a1.29,1.29,0,0,1-1.39,1.08,1.16,1.16,0,0,1-1.24-.82,1.28,1.28,0,0,1,.22-.86,1.38,1.38,0,0,1,2.2,0,1.62,1.62,0,0,1,.21.56"/><path class="cls-38" d="M36.79,129.66a2,2,0,0,1-2.25-.51v-.81a.87.87,0,0,1,.32-.44l.2-.12a1.26,1.26,0,0,1,1.73.16,1.22,1.22,0,0,1,0,1.72"/><path class="cls-39" d="M34.86,127.91l-.32.43.32-.43"/></g></g></svg>