<svg xmlns="http://www.w3.org/2000/svg" viewBox="0 0 262.93 123.38"><defs><style>.cls-1{fill:#f90;}.cls-2{fill:#fcfdfd;}.cls-3{fill:#fefefe;}.cls-4{fill:#fdfefe;}.cls-5{fill:#fdfdfd;}.cls-6{fill:#fafcfc;}.cls-7{fill:#f3f6f6;}.cls-8{fill:#b8baba;}.cls-9{fill:#8ca7a7;}.cls-10{fill:#050404;}.cls-11{fill:#302828;}</style></defs><title>Asset 1</title><g id="Layer_2" data-name="Layer 2"><g id="Layer_1-2" data-name="Layer 1"><path d="M131.85,123.38a257,257,0,0,1-62.21-7,163.66,163.66,0,0,1-35.09-12.54,90.77,90.77,0,0,1-18.43-12A50.67,50.67,0,0,1,5.41,79.67c-7.19-11.9-7.22-23.87,0-35.79A50.83,50.83,0,0,1,16.41,31.35c8-6.76,17.13-11.68,26.75-15.7A194.44,194.44,0,0,1,83.58,4.1a274.64,274.64,0,0,1,64-3.65c23.08,1.22,45.7,5.08,67.42,13.3A119,119,0,0,1,239.34,26,70.36,70.36,0,0,1,251.5,36.05a44.25,44.25,0,0,1,7.33,10c5.45,10.38,5.48,20.81.06,31.21a48.93,48.93,0,0,1-11.46,14,89.86,89.86,0,0,1-19.17,12.58,168.36,168.36,0,0,1-38.82,13.41,256.73,256.73,0,0,1-57.59,6.07"/><path class="cls-1" d="M131.7,117.92c-23.57-.27-46.55-2.65-69-9.19a141.54,141.54,0,0,1-30.1-12.29A72,72,0,0,1,15.82,83.8,40.47,40.47,0,0,1,9.5,75.4q-7.39-13.47,0-27a45.2,45.2,0,0,1,11.21-13A88.4,88.4,0,0,1,38.48,24.23,164.26,164.26,0,0,1,74.69,11.91c23.86-5.39,48.07-6.9,72.43-5.6,19.84,1.06,39.39,4.14,58.36,10.33A129.58,129.58,0,0,1,233,28.9a69,69,0,0,1,14.28,11.23,39.8,39.8,0,0,1,6.5,8.86q6.75,12.84,0,25.69a44.9,44.9,0,0,1-11.72,13.78c-8.26,6.74-17.64,11.51-27.49,15.39a194.63,194.63,0,0,1-38.8,10.44,284.9,284.9,0,0,1-44.09,3.63"/><path d="M125.82,111.5a241.24,241.24,0,0,1-57.55-7.64A133,133,0,0,1,40.51,93.47a61.14,61.14,0,0,1-13.88-9.32,50.52,50.52,0,0,1-7-7.82c-6.4-9.17-6.35-19.35-.2-28.69A43.27,43.27,0,0,1,29.7,37,83.41,83.41,0,0,1,47.16,27.1,168.59,168.59,0,0,1,82.92,16.58c22.91-4.38,46-5.12,69.22-3.58,18.22,1.22,36.15,4.28,53.51,10.2a112.89,112.89,0,0,1,20.12,8.9,54.11,54.11,0,0,1,13,9.77A42.26,42.26,0,0,1,244.32,49c5.07,8.58,5,17.29,0,25.89a41.14,41.14,0,0,1-11.06,11.82,85.59,85.59,0,0,1-18.78,10.48,170.09,170.09,0,0,1-36.8,10.4c-15.3,2.67-30.73,3.93-51.81,3.89"/><path class="cls-2" d="M27.89,77.17a23,23,0,0,1-6.65-10.85c-1.37-4.73-.52-9.16,1.65-13.43A31.75,31.75,0,0,1,31.15,43a69.52,69.52,0,0,1,14.58-9.12A138.69,138.69,0,0,1,77,23.51a252.3,252.3,0,0,1,67.64-5.26c1.1.06,2.2.21,4.12.4a17.47,17.47,0,0,1-6,1.79c-4.14.32-8.28.84-12.42.82C106.79,21.14,84,25.58,61.73,32.93A80,80,0,0,0,37.38,46c-1.13.88-2.27,1.78-3.31,2.76C27.42,55,25,62.45,27.6,71.34c.45,1.52,1.09,3,1.64,4.47.17,1.07-.26,1.54-1.35,1.36"/><path class="cls-3" d="M156.74,63.23c2.35,1.39,4.4,2.59,6.43,3.81,1.77,1.08,3.55,2.14,5.25,3.31a8.79,8.79,0,0,1,2,2,1.78,1.78,0,0,1-.87,2.74,10.62,10.62,0,0,1-3.71.34A18,18,0,0,1,158,72c-2.09-1.43-4.08-3-6-4.47-1.22.34-.85,1.26-.89,2-.1,1.59,0,3.2-.22,4.77a4,4,0,0,1-3.41,3.51,2.83,2.83,0,0,1-3.14-2.21c-.1-1-.11-1.91-.12-2.86q-.08-9.57-.14-19.12a6.63,6.63,0,0,0-.66-3.68c-.93-1.56-.29-3.07.84-4.35a8.54,8.54,0,0,1,1.38-1.31c5-3.46,10.33-5.58,16.55-4.86A9.45,9.45,0,0,1,169.44,53a18.24,18.24,0,0,1-6.67,6.7c-1.84,1.19-3.77,2.23-6,3.55"/><path class="cls-3" d="M139.57,75.46a3,3,0,0,1-1.71,3.05,2.9,2.9,0,0,1-3.56-.19,9.71,9.71,0,0,1-2.41-3.47,73.11,73.11,0,0,1-2.2-8.28c-.29-1.3-.84-2-2.18-2-.48,0-1-.06-1.44-.07-3.36,0-3.75.28-4,3.72a14.57,14.57,0,0,1-1.39,6,3.47,3.47,0,0,1-4.47,1.7,3.13,3.13,0,0,1-2.37-3.64,97.48,97.48,0,0,1,5.61-25.58,28,28,0,0,1,3-5.41,4.75,4.75,0,0,1,4.63-1.9A3.25,3.25,0,0,1,129.87,41a20.23,20.23,0,0,1,1.51,3,24.84,24.84,0,0,1,1.22,4.11c1.57,8.47,4.13,16.68,6.41,25,.25.92.43,1.86.56,2.41"/><path class="cls-4" d="M64.8,78.07a11,11,0,0,1-10.81-9,3.76,3.76,0,0,1,.78-3.15c1.06-1.33,2.69-1.42,3.63-.1a22.39,22.39,0,0,1,1.15,2.1c1.57,2.85,3.55,3.85,6.66,3.29a13.05,13.05,0,0,0,2.28-.7c2.14-.78,2.57-2,.94-3.47-2.93-2.69-6-5.29-9.16-7.69a12.89,12.89,0,0,1-4.84-6.91c-1.24-4.3.11-8,3.93-10.32a15.46,15.46,0,0,1,11-2.48c4.44.77,7.28,5.85,5.57,9.87a2.85,2.85,0,0,1-5,.62c-.29-.38-.47-.83-.73-1.23-.58-.88-.46-2.33-1.9-2.49a5.8,5.8,0,0,0-4.93,1.31c-1.27,1.22-1.57,3-.28,4.26A62.39,62.39,0,0,0,70,57.84a24.4,24.4,0,0,1,6.27,6.51,7.87,7.87,0,0,1-2.31,11.28,15.89,15.89,0,0,1-9.11,2.44"/><path class="cls-5" d="M91.29,61.41c-.15-4.15-.29-8.3-.46-12.44-.09-2.22-.25-2.42-2.43-2.52-1.75-.07-3.51.06-5.27,0s-2.3-.65-2.37-2.3a12.3,12.3,0,0,1,0-1.92,2.9,2.9,0,0,1,2.41-2.62,8,8,0,0,1,1.89-.23,118.61,118.61,0,0,1,21.45,1.87,14.46,14.46,0,0,1,1.87.41A3.14,3.14,0,0,1,110.57,45a3.29,3.29,0,0,1-2.67,3,35.64,35.64,0,0,1-6.2-.15c-4.41-.53-4.31-.31-4.16,3.76.27,6.86.37,13.73.53,20.59a19.19,19.19,0,0,1,0,2.4,3.25,3.25,0,0,1-3,3.21c-2.32.39-3.76-.65-3.83-3-.12-3.67-.06-7.35-.07-11v-2.4h.13"/><path class="cls-5" d="M184.33,61.24c-.12-4.31-.29-8.61-.35-12.92a1.59,1.59,0,0,0-1.72-1.78c-1.91-.09-3.83,0-5.74,0s-2.63-.6-2.7-2.48c-.12-3.29.82-4.5,4-4.57a82.57,82.57,0,0,1,9.57.32c4.45.43,8.88,1,13.29,1.78,2.22.37,3.18,1.82,2.9,3.65a3.47,3.47,0,0,1-3.75,2.95c-2.39,0-4.78-.31-7.17-.46-1.83-.12-2.19.25-2.14,2.2.19,7.18.4,14.37.59,21.55a23.37,23.37,0,0,1-.06,3.35,3.63,3.63,0,0,1-5.41,2.68,3.11,3.11,0,0,1-1.25-1.87,16,16,0,0,1-.18-3.33c0-3.68,0-7.35,0-11h.1"/><path class="cls-6" d="M232.29,60.8c1.56,4.21.4,7.81-2.57,10.94A46.1,46.1,0,0,1,226,75.37a76.8,76.8,0,0,1-19,11.77,29.78,29.78,0,0,1-5.92,1.62,1.66,1.66,0,0,1-1.37-.91,1.86,1.86,0,0,1,.55-1.63,15.62,15.62,0,0,1,2.86-1.67,110.63,110.63,0,0,0,16.49-10.46,39.09,39.09,0,0,0,11-12.36c.42-.57.63-1.52,1.69-.93"/><path class="cls-7" d="M226.2,50.29a4.5,4.5,0,0,1-4.55-4.52,4,4,0,0,1,3.91-4,4.92,4.92,0,0,1,4.58,4.64,3.82,3.82,0,0,1-3.94,3.87"/><path class="cls-8" d="M27.89,77.17l1.35-1.36a16.41,16.41,0,0,1,3.6,5.6c-2.51-1.28-4-2.43-5-4.24"/><path class="cls-9" d="M232.29,60.8l-1.69.93a2.58,2.58,0,0,1-.1-.94c.17-.55.39-1.47.7-1.52,1.09-.17,1.25.64,1.09,1.53"/><path class="cls-10" d="M150.8,58.12a62.74,62.74,0,0,0-.05-6.81c-.28-2.41,1-3.38,2.93-4.17a14.34,14.34,0,0,1,7.43-.88c2.31.31,3.07,2.22,1.68,4.17a12.54,12.54,0,0,1-2.27,2.39,36.17,36.17,0,0,1-9.72,5.3"/><path class="cls-11" d="M126.45,51.35c.3,1.76.6,3.25.81,4.76.17,1.14-.49,1.65-1.54,1.91-1.49.36-2.1-.14-1.73-1.61a39.6,39.6,0,0,1,1.21-4c.12-.35.64-.56,1.25-1"/></g></g></svg>