<svg xmlns="http://www.w3.org/2000/svg" viewBox="0 0 268.48 279.59"><defs><style>.cls-1{fill:#fff;}.cls-2{fill:#fefefe;}.cls-3{fill:#fe9900;}.cls-4{fill:#cdcdcd;}.cls-5{fill:#fdfefe;}.cls-6{fill:#f3fcfc;}.cls-7{fill:#fafbfb;}.cls-8{fill:#fdfdfd;}.cls-9{fill:#fcfdfd;}.cls-10{fill:#fe9901;}.cls-11{fill:#fcfcfc;}.cls-12{fill:#fcfefe;}.cls-13{fill:#edf5f5;}.cls-14{fill:#c4c9c9;}.cls-15{fill:#c3c9c9;}.cls-16{fill:#e6f0f0;}.cls-17{fill:#f5f6f6;}.cls-18{fill:#f9f8f6;}.cls-19{fill:#f7f8f8;}.cls-20{fill:#f5f7f7;}.cls-21{fill:#f7fbfb;}.cls-22{fill:#f0f3f3;}.cls-23{fill:#f6f6ef;}.cls-24{fill:#f0f1f1;}.cls-25{fill:#f2f4f4;}.cls-26{fill:#f3f5f5;}.cls-27{fill:#f0f4f4;}.cls-28{fill:#faf9f9;}.cls-29{fill:#faf8f8;}.cls-30{fill:#a5a4a4;}.cls-31{fill:#b3b9b9;}.cls-32{fill:#eae9e9;}.cls-33{fill:#afb5b5;}.cls-34{fill:#a0a1a1;}.cls-35{fill:#060401;}.cls-36{fill:#fdf9f5;}.cls-37{fill:#120a00;}.cls-38{fill:#281700;}.cls-39{fill:#2f2d2d;}.cls-40{fill:#251e1e;}.cls-41{fill:#1e1a1a;}.cls-42{fill:#2a2828;}.cls-43{fill:#231c1c;}.cls-44{fill:#181313;}.cls-45{fill:#0e0e0e;}.cls-46{fill:#1c1919;}</style></defs><title>Asset 1</title><g id="Layer_2" data-name="Layer 2"><g id="Layer_1-2" data-name="Layer 1"><path class="cls-1" d="M228.26,8.42c3.06-1.66,6.15-2.79,9.67-2.19a12.83,12.83,0,0,1,6.8,3.24A22.92,22.92,0,0,1,250.78,18c2.41,6.26,4.87,12.49,7.18,18.79,3.19,8.68,5.89,17.57,9.5,26.07,2.88,6.78-.67,15.69-6.38,18.68a26.67,26.67,0,0,1-3,1.39c-3.14,1.13-3.15,1.11-3.2,4.11-.08,3.83-.06,7.67-.29,11.5a43.81,43.81,0,0,1-1.05,7.56,18.26,18.26,0,0,1-15.93,13.81,10.65,10.65,0,0,1-2.87.09c-2.81-.45-4,1.13-4.9,3.43a72.49,72.49,0,0,1-19.32,27.05q-1.61,1.42-3.33,2.72c-4.24,3.18-8.85,4.29-14,2.4a3.15,3.15,0,0,0-1.05.07c-.9,3.3-1.88,6.65-2.7,10a7.34,7.34,0,0,1-6.16,5.89c-.63.12-1.28.15-1.89.33a2.38,2.38,0,0,0-1.68,2.57,3.37,3.37,0,0,0,.16.94,11,11,0,0,1,.17,7.05,1.52,1.52,0,0,0,1.5,2c1.27.09,2.55.06,3.83.08,6.56.07,13.11.07,19.66.24,7.41.2,10.6,3.8,10.24,11.29,0,.48-.06,1-.13,1.43-.25,1.9-1,3.87-.66,5.67s2.8,2.33,4.16,3.66c4.36,4.29,5.08,12.28,1.91,16.77-5.25,7.43-10.2,15.08-15.37,22.57-5.44,7.88-11,15.7-16.51,23.53-1,1.44-2.07,2.84-3.16,4.22-5.13,6.51-15.28,7.78-21.19,1.87a3.87,3.87,0,0,0-4.21-1.2c-4.33,1.05-8.73,1.84-13.1,2.73a4.91,4.91,0,0,0-.94.2c-5.38,2.12-11,1.44-16.58,1.52a10.57,10.57,0,0,1-2.39-.17c-6.54-1.44-13.08-2.88-19.6-4.41a3.34,3.34,0,0,0-3.39,1c-5,4.58-11,5.4-16.77,2.48a14.32,14.32,0,0,1-5-4.34c-2.88-3.83-5.82-7.63-8.54-11.56-7.9-11.43-15.71-22.92-23.55-34.39-.82-1.18-1.59-2.4-2.37-3.6-3.14-4.79-2.68-9.69-.36-14.59a11.74,11.74,0,0,1,5.11-4.92,2,2,0,0,0,1-2.36,68.78,68.78,0,0,1-.8-8.57,8.45,8.45,0,0,1,8.37-8.7c.64,0,1.28-.09,1.91-.1,4.16-.08,8.31-.17,12.47-.23,2.56,0,5.12,0,7.67,0,1.41,0,3.06.16,4.17-.49,1.58-.92,0-2.62.22-4,.21-1.57.32-3.16.56-4.73.38-2.38,0-3-2.52-3.59-.32-.07-.64-.08-1-.14a7.36,7.36,0,0,1-6.2-5.89c-.58-2.32-1.06-4.67-1.61-7-.26-1.06-.58-2.1-.8-2.87-1-.65-1.5,0-2.08.12a13.75,13.75,0,0,1-12.29-2.18,68.89,68.89,0,0,1-7.62-6.55,74,74,0,0,1-15.37-22.4c-.38-.87-.79-1.74-1.12-2.64A3,3,0,0,0,34.33,120c-.79,0-1.6,0-2.39,0-9.2-.16-16-7.13-17.32-13.94a56.41,56.41,0,0,1-1-7.08c-.26-4.46-.31-8.94-.41-13.41,0-1.24-.32-2.08-1.74-2.4A15.58,15.58,0,0,1,7.9,81.79C1.55,78.59-1.62,70.1.82,63.8,2.89,58.44,4.74,53,6.72,47.61q4.77-13.05,9.58-26.06a33.7,33.7,0,0,1,5.45-10c3.89-4.71,10-7.22,16.71-3.94a3.26,3.26,0,0,0,3.84-.41A39.77,39.77,0,0,1,59.05.45,35.27,35.27,0,0,1,64.28,0Q132.64,0,201,.07a67.35,67.35,0,0,1,13.77,1.49,27.61,27.61,0,0,1,12,5.71c.49.4,1,.76,1.54,1.15"/><path d="M249,78.26c0,1.51-.09,3.09-.12,4.67-.07,5.27-.07,10.54-.22,15.81a27.13,27.13,0,0,1-.75,5.68c-1.48,6-5.87,9.52-12,9.92-2.39.15-4.78.33-7.17.36a2.61,2.61,0,0,0-2.73,2.13,66.24,66.24,0,0,1-18.57,28.63,35,35,0,0,1-5.28,4.11c-3.23,2-5.33,1.72-8.22-.78-1.45-1.25-2.85-2.56-4.33-3.78-.93-.76-1.77-.37-2,.89-.67,3.61-1.25,7.24-2,10.83-.45,2.19-1.07,4.34-1.72,6.47-.85,2.8-1,2.91-3.95,3.16l-1,0c-1.11.09-2.5-.19-3.24.38s-.54,2-1,3c-.67,1.42-1.54,2.75-2.45,4.35.41.71,1,1.64,1.49,2.62a4.93,4.93,0,0,1,.26,4.61,3.49,3.49,0,0,0,0,4c1.08,1.59.41,3.39.26,5.38,1.73,0,3.29.13,4.85.14,8.16,0,16.31.2,24.46,0,5.72-.12,6.15,2.49,5.59,6.43-.46,3.16-1.07,6.3-1.57,9.45-.27,1.67-.08,1.92,1.49,2.31a17.71,17.71,0,0,1,2.31.57,7.57,7.57,0,0,1,4,11c-1.28,2.21-2.72,4.33-4.17,6.43q-13.78,19.9-27.63,39.75a27.38,27.38,0,0,1-3.62,4.45c-2.33,2.17-5.07,3.23-8.36,2.24s-4.71-3.09-4.85-6.6c-.93.2-1.67.29-2.37.52a86,86,0,0,1-17.21,4.13,54.35,54.35,0,0,0-5.62,1.15c-4.58,1.07-9.22.8-13.8.31a89.28,89.28,0,0,1-11.27-2.18c-5-1.16-9.87-2.51-15-3.82a16.05,16.05,0,0,1-.36,1.75,7,7,0,0,1-8.12,5,10.82,10.82,0,0,1-6.93-4.75c-2.45-3.36-4.93-6.69-7.29-10.1q-11.73-17-23.36-34c-.82-1.19-1.6-2.4-2.33-3.63-3.06-5.18-1-10.43,4.66-12.13,3-.9,3-.89,2.42-4s-1.09-6.3-1.31-9.47c-.25-3.55.86-4.68,4.35-4.78,4.15-.12,8.31-.09,12.46-.11,5.6,0,11.19,0,16.79-.05a6.37,6.37,0,0,0,1.22-.28c-.09-2.06-.49-4.28.82-6.26a2,2,0,0,0,0-1.73c-1.63-2.78-.8-5.23.9-7.56a1.34,1.34,0,0,0-.16-2,6.91,6.91,0,0,1-2.12-5.16A1.75,1.75,0,0,0,92,166.58c-1.57-.21-3.18-.16-4.77-.29a2.85,2.85,0,0,1-2.74-2.19c-1.76-5.18-2.53-10.55-3.56-15.88-.24-1.22-.69-2.4-1-3.61-1.71-.17-2.32,1.39-3.41,2.18A19.53,19.53,0,0,0,74,149c-2.27,2.34-4.84,2.22-7.46.85a21.61,21.61,0,0,1-3.92-2.72,68.91,68.91,0,0,1-20-28.81c-.28-.74-.52-1.5-.76-2.27A1.77,1.77,0,0,0,40,114.76c-2.23-.13-4.46-.28-6.69-.39C25,114,20.07,109.2,19.58,100.83c-.27-4.62-.17-9.26-.29-13.89-.08-2.84.34-5.72-.31-8.54-1.88-.21-3.64-.25-5.32-.61C7.6,76.5,4.76,71.31,6.87,65.45Q14,45.62,21.28,25.83a38.6,38.6,0,0,1,2.37-5.75,25.7,25.7,0,0,1,3.87-5.42c3-3,6.68-3,9.82-.2.81.73,1.49,1.6,2.44,2.64.78-.66,1.47-1.27,2.17-1.84,4.64-3.78,9.68-6.85,15.62-8a44.6,44.6,0,0,1,8.56-.75c23,0,46,.06,69.06.08,21.58,0,43.16,0,64.74.06,3.82,0,7.64.45,11.46.77a21,21,0,0,1,12.42,5.67c.95.85,1.86,1.75,2.81,2.61,1.86,1.7,1.87,1.69,3.59-.17.21-.23.39-.51.62-.73,3.22-3.12,7-3.2,10.21-.13a16.81,16.81,0,0,1,4.29,6.27c1.7,4.48,3.53,8.91,5.17,13.41q5.56,15.3,11,30.67a12,12,0,0,1,.9,4.16c-.13,4.61-2.82,7.69-7.49,8.61a54.69,54.69,0,0,1-5.92.49"/><path class="cls-1" d="M169,85.15a55.44,55.44,0,0,1-6.71,25.31,39.82,39.82,0,0,1-12.59,14.18C138.87,131.93,126,131.3,116,123a38.41,38.41,0,0,1-11.62-16.71C98.6,90.5,99.41,75,107,59.94a39.22,39.22,0,0,1,11.55-13.85c11.62-8.74,26.08-7.92,36.66,2.12,6,5.65,9.61,12.68,11.76,20.49a58,58,0,0,1,2,16.45"/><path class="cls-2" d="M118,181.64c-1.57-1.4-3.5-1.36-5.43-1.35-4.15,0-8.31,0-12.46,0-.56,0-1.58-.36-1.58-.56a3.14,3.14,0,0,1,.58-2.1c1.71-1.71,3.67-3,6.3-2.88s5.43.08,8.14,0a12.43,12.43,0,0,0,3.25-.6,1.16,1.16,0,0,0,0-2.2,16.27,16.27,0,0,0-3.72-.63c-2.87-.08-5.75-.06-8.63,0a10.25,10.25,0,0,1-5.84-1.82c-.48-.3-.68-1.38-.62-2.06,0-.48.69-1.06,1.2-1.29a4.73,4.73,0,0,1,1.89-.16c6.71.05,13.43.13,20.14.16a1.84,1.84,0,0,1,2.08,1.46c.44,1.62,1.65,2.21,3.27,2.21,4.79,0,9.58,0,14.37,0,2,0,3.41-.61,4-2.67.25-.95,1-1,1.87-1l19.65-.17a7.53,7.53,0,0,1,2.38.17c.51.17,1.18.77,1.23,1.24a2.74,2.74,0,0,1-.6,2.09,6,6,0,0,1-4,1.2c-2.87,0-5.75,0-8.62.19a59.84,59.84,0,0,0-6.1.92c-.19,0-.41.47-.42.73a.91.91,0,0,0,.35.76,5,5,0,0,0,1.78.57c3.5.24,7,.45,10.52.61,2.77.13,4.72,1.66,6.4,3.64a1.77,1.77,0,0,1-1.16,2.9,30.45,30.45,0,0,1-3.82.19c-2.4,0-4.8-.05-7.19.1a10.14,10.14,0,0,0-3.14.9,1.2,1.2,0,0,0,.07,2,11.35,11.35,0,0,0,3.2.74c2.88.12,5.76,0,8.63.15a6.47,6.47,0,0,1,2.66.77c.5.26,1.19,1.11,1.07,1.43a2.89,2.89,0,0,1-1.52,1.57,24.34,24.34,0,0,1-5.08,1.38c-3.82.49-7.7.88-10.2-3.1a26.27,26.27,0,0,0-36.41.33c-.57.55-1.14,1.12-1.66,1.72a3.29,3.29,0,0,1-2.47,1.23,31.76,31.76,0,0,1-12.73-1.63,1.45,1.45,0,0,1-.6-2.59c2.71-2.94,2.71-2.93,7.06-3,2.72,0,5.44,0,8.15-.12,1.61,0,1.61-.11,3.83-1.46"/><path class="cls-3" d="M127.89,185.1c5.6-2.18,11-1.2,16.18,1.3a23.31,23.31,0,0,1,13.28,17.66c2.55,14.27-10.7,26.9-25.07,23.81-7.17-1.53-12.9-5.3-16.17-12.18-3.07-13.42,1.06-24.15,11.78-30.59"/><path class="cls-4" d="M87.65,156.07c-.26-.38-.67-.74-.74-1.15-.83-4.53-1.56-9.08-2.44-13.59a2.28,2.28,0,0,1,.91-2.45c6.6-5.73,13.18-11.47,20-17.38,2,1.79,4,3.53,5.91,5.37a4.69,4.69,0,0,1,1.15,2c1.94,7.2,3.82,14.41,5.72,21.61-4.92,2.13-10.22,1.62-15.36,2.31s-10.56-.12-15.11,3.23"/><path class="cls-5" d="M57.45,132.8a7.79,7.79,0,0,1,.86-1q8.94-7.56,17.88-15.1a8.38,8.38,0,0,1,6-2.41c5.42.18,10.85.12,16.27,0a3.66,3.66,0,0,1,3.41,2.11,1.66,1.66,0,0,1-.12,2.16,8.7,8.7,0,0,1-1,1Q86.11,132.28,71.53,145a1.47,1.47,0,0,1-2.1.12,70.72,70.72,0,0,1-12-12.35"/><path class="cls-2" d="M218.9,17.72a22.43,22.43,0,0,1,8.9,8.77c3.34,5.81,6.76,11.59,10.07,17.42a38.24,38.24,0,0,1,4.72,12.48,28.24,28.24,0,0,1,.48,4.76c0,11.5,0,23-.11,34.51-.08,6.79.92,5.86-5.77,5.94-.64,0-1.28,0-1.92,0-1.32-.07-1.74-.43-1.71-1.71.06-2.55.11-5.11.32-7.66a178.32,178.32,0,0,0-1.46-41.1,58,58,0,0,0-6.24-19c-2-3.66-4-7.27-5.94-11a30.71,30.71,0,0,1-1.34-3.42"/><path class="cls-5" d="M210.73,132.66a56.79,56.79,0,0,1-13,12.93c-.15,0-.33,0-.43-.11q-15-13-29.9-26a3.61,3.61,0,0,1-.69-.66,1.5,1.5,0,0,1-.31-.84c0-1.23,2.13-3.38,3.44-3.51,1.1-.11,2.22-.14,3.34-.15,4.3,0,8.6.13,12.89-.06a7.64,7.64,0,0,1,5.59,2.17c3.59,3.14,7.12,6.35,10.75,9.45,2.65,2.27,5.42,4.41,8.36,6.79"/><path class="cls-6" d="M39.17,28.5c5.1-9.38,12.37-14.43,22.06-16.11a30.66,30.66,0,0,1,5.26-.22c6.55,0,13.1.19,19.65.19q57.06,0,114.12.06c3.82,0,7.64.51,11.45.85a8,8,0,0,1,4.36,1.64c-.55,1.26-1.64.83-2.51.83q-15.59,0-31.17,0-46-.12-92.06-.24c-7.67,0-15.34-.12-23-.36a10.56,10.56,0,0,0-5.49,1.26c-7.29,3.92-14.59,7.82-22.66,12.14"/><path class="cls-4" d="M150.06,150.51a22.18,22.18,0,0,1,.37-2.33c1.62-6,3.31-12,4.9-18a5.84,5.84,0,0,1,2.13-3.56c1.9-1.43,3.63-3.1,5.59-4.81.81.63,1.7,1.25,2.5,2,4.12,3.73,8.22,7.5,12.32,11.25.58,4-.46,7.87-1.23,11.73-.36,1.77-1.33,3.38-3.27,3.69-7.2,1.17-14.42,2.11-21.72,1a2.81,2.81,0,0,1-1.59-1"/><path class="cls-7" d="M96.32,91A61,61,0,0,1,99.94,61.3a50.39,50.39,0,0,1,12.69-18.95,35.84,35.84,0,0,1,16.24-8.82c9.65-2.23,18.35,0,26.3,5.7C160.38,43,164,48,167,53.54c7.79,14.59,8.62,29.78,3.36,45.37.39-2.8.84-5.6,1.18-8.41a56.42,56.42,0,0,0-6.4-34.28,40.18,40.18,0,0,0-9.29-11.5,30.34,30.34,0,0,0-37.31-2.25,43.11,43.11,0,0,0-13.64,15.2A58.37,58.37,0,0,0,98,79.46c-.77,3.05-.12,6.15-.37,9.21-.07.92.54,2.36-1.32,2.29"/><path class="cls-8" d="M190.24,234.87c2.22-6.15,4.34-12.34,5.3-18.84.51-3.47.83-7,1-10.47a31,31,0,0,0-.51-5H160.76l-2-5.91c4.43-.11,8.53-.28,12.64-.31,10.06-.07,20.12-.08,30.18-.12,2.24,0,2.54.2,2.11,2.57-.89,4.86-1.8,9.73-3,14.52-2.18,8.84-4.79,17.54-9.54,25.43-1.74.06-1.43-.87-.91-1.9"/><path class="cls-9" d="M248.85,64.53c.78-9.16-2.14-17.32-6.67-25.06-2.9-5-5.7-10-8.66-14.92a6.43,6.43,0,0,1-.89-5,3.26,3.26,0,0,1,2.5-2.62,2.65,2.65,0,0,1,2.92,1.2A36.43,36.43,0,0,1,242,24.65c5.28,13.53,10.35,27.14,15.6,40.68.75,2,1,3.64-.09,5.46a6.16,6.16,0,0,1-7.54,2.36,1.83,1.83,0,0,1-1.09-1.91c0-2.24,0-4.48,0-6.71"/><path class="cls-10" d="M140.15,164.35a4.25,4.25,0,0,1-1.34.36c-5.26-.28-4.74.88-6.25-4.86-1.81-6.9-3.88-13.73-5.83-20.59-.43-1.51-.82-3-1.33-5,3.26.23,6.21.62,9.17.6s5.67-.45,8.51-.7c1.63,1.38,1,3.16.94,4.87-.15,8.61-2.56,16.86-3.87,25.28"/><path class="cls-11" d="M16.46,73.64c-3-.1-4.81-1.37-5.86-4a4.07,4.07,0,0,1,0-3.21C12.36,62,14,57.51,15.74,53c3.52-9.23,6.94-18.5,10.58-27.68a44.57,44.57,0,0,1,4-7,2.86,2.86,0,0,1,3.29-1.38A3.55,3.55,0,0,1,36,20.19a6.72,6.72,0,0,1-1.25,4c-3.29,5.64-6.63,11.26-9.74,17a68.59,68.59,0,0,0-4,9.16,29.34,29.34,0,0,0-1.7,10.81c.07,3.19,0,6.38,0,9.57,0,2.2-.8,2.94-2.82,2.88"/><path class="cls-12" d="M96.87,108.19c-1.59,0-3.13.13-4.68.13l-50.73,0c-3,0-6.06,0-9.09.14a5.63,5.63,0,0,1-5-2.33,4.06,4.06,0,0,1-1.08-2.48c.19-1.25,1.52-.78,2.39-.77q28.23.09,56.47.23c1.91,0,3.83,0,5.74,0,4,.09,4.66-1,6,5"/><path class="cls-13" d="M172.15,108.28c.44-1.28.7-2.18,1.06-3a2,2,0,0,1,2.21-1.43c.64.06,1.28,0,1.92,0l60.84.17c.8,0,1.6,0,2.39.06a1,1,0,0,1,.63,1.45,5.66,5.66,0,0,1-4.63,2.95q-1.2,0-2.4,0l-56-.15c-1.87,0-3.74,0-6-.06"/><path class="cls-11" d="M150.06,150.51c4,0,8,.1,11.94-.09,3.8-.18,7.58-.64,11.36-1.08a2,2,0,0,0,1.38-1.07,23.14,23.14,0,0,0,1.09-4.12c.45-2.65.75-5.32,1.19-8,.07-.41.56-.74.85-1.11a13.28,13.28,0,0,1,1.56,1.05c1.43,1.25,2.81,2.55,4.2,3.83-.29,1.7-.6,3.4-.89,5.11-.45,2.66-.87,5.32-1.36,8-.34,1.82-.72,2.18-2.47,2.19q-14.53,0-29.09,0a3.48,3.48,0,0,1-.94-.3,6.56,6.56,0,0,1,1.18-4.45"/><path class="cls-11" d="M110.7,194.75c-1.84,6.33-.37,5.66-6.52,5.63q-13.17-.06-26.35-.31c-2.7,0-5.41-.31-8.11-.63a3.39,3.39,0,0,1-3.27-3,1.57,1.57,0,0,1,1.36-2.06c.79-.07,1.59-.08,2.39-.08l38.32.22c.63,0,1.26.11,2.18.19"/><path class="cls-14" d="M210.44,128.23c-5.7-4.23-11.38-8.49-17-13.41a6.9,6.9,0,0,1,1.59-.51q11.94-.11,23.87-.16c.32,0,.64,0,.95,0,1,.08,1,.49.43,2-2.19,0-3.38,1.23-4.49,3-1.85,3-3.09,6.29-5.32,9"/><path class="cls-15" d="M53.84,127.51a42.64,42.64,0,0,1-6.5-12.44c.44-.34.66-.67.89-.67,8.3-.1,16.6-.19,24.9-.22.5,0,1,.42,1.51.65l-1.42,1.1c-5.52-.25-8.76,3.58-12.42,6.79-2.11,1.85-3.34,5.11-7,4.79"/><path class="cls-16" d="M146.73,161.74c.13-.9.22-1.68.37-2.44a1.93,1.93,0,0,1,2-1.72l.48,0q14.58,0,29.15.06c1.42,0,1.82.43,1.86,1.59.09,2-.31,2.69-1.68,2.81a13.59,13.59,0,0,1-1.43,0q-14.34,0-28.67-.09c-.62,0-1.24-.13-2-.22"/><path class="cls-5" d="M87.65,156.07a3,3,0,0,1,2.57-3.38,7.67,7.67,0,0,1,.93-.19c4.57-.37,9.15-.7,13.72-1.11,1.72-.16,3.43-.63,5.15-.72,2.7-.15,5.4-.1,8.1-.14l1.88,5.56a11.72,11.72,0,0,1-2,.41q-14,.06-28.06.05a10.64,10.64,0,0,1-2.25-.48"/><path class="cls-17" d="M118.18,131.44c3,.59,4.39,1.81,5.06,4.35,2.14,8.15,4.54,16.24,6.84,24.35.22.76.46,1.52.64,2.3s.23,1.62-.65,2a2.25,2.25,0,0,1-2.81-1.13,8.78,8.78,0,0,1-.29-.91q-4.29-14.4-8.56-28.82a14,14,0,0,1-.23-2.18"/><path class="cls-17" d="M196.82,238.53a106.9,106.9,0,0,0,8.62-23.14c.33-1.36.81-2.39,2.4-2.45,2.06-.07,3.63.77,4.25,2.4a2.7,2.7,0,0,1,.13,1.38,3.75,3.75,0,0,1-.6,1.28c-4.15,6-7,12.83-11.48,18.63-.78,1-1.52,2-2.27,3.05-.9.11-1.45-.09-1.05-1.15"/><path class="cls-18" d="M140.15,164.35c-1.28-1-.78-2.28-.59-3.48.69-4.35,1.56-8.68,2.14-13.05s.93-9.08,1.38-13.62c.12-.1.21-.26.35-.31,1.9-.66,3.64-1.92,5.8-1.6.92,2.13-.37,3.93-.92,5.82q-3.39,11.63-6.91,23.2c-.32,1.05-.83,2-1.25,3"/><path class="cls-19" d="M68.33,236.92a61.68,61.68,0,0,1-6.49-10c-1.47-2.82-3.27-5.46-4.93-8.17-.76-1.24-1.6-2.49-.66-4A4.11,4.11,0,0,1,60.36,213a2.25,2.25,0,0,1,2.11,1.64c.15.45.2.93.32,1.39a116.72,116.72,0,0,0,6.61,18.88c.63,1.2.6,2.06-1.07,2.06"/><path class="cls-20" d="M185.74,230.78a8.41,8.41,0,0,1-3,6.85,5.72,5.72,0,0,1-6.27.84,5.91,5.91,0,0,1-3.15-5.94,11.45,11.45,0,0,1,2.55-6.08c1.95-2.28,4.33-2.51,6.74-.69,1.85,1.41,3.17,3.13,3.1,5"/><path class="cls-21" d="M87.87,215.55a9.72,9.72,0,0,1,6.51,2,6.19,6.19,0,0,1,1.87,2.08,2.59,2.59,0,0,1,.07,2.22,2.42,2.42,0,0,1-2.11.45,20.55,20.55,0,0,1-3-1.45,9.55,9.55,0,0,0-12.41,3.81,5.34,5.34,0,0,1-1.07,1.55,2.18,2.18,0,0,1-1.72.32,2.09,2.09,0,0,1-1.1-1.37c-.37-1.88.57-3.43,1.73-4.77a13.57,13.57,0,0,1,11.22-4.82"/><path class="cls-22" d="M88.31,226.23c3.39-.07,6.75,3.68,6.66,7.41-.08,3-3.34,5.84-6.55,5.76a6.46,6.46,0,0,1-6.29-6.5c.08-3.57,2.89-6.61,6.18-6.67"/><path class="cls-23" d="M127.89,185.1c-1.53,1.62-3.13,3.17-4.57,4.86-5.64,6.59-8.31,14.14-7.22,22.88a20.85,20.85,0,0,1,0,2.85c-5.91-8.57-4.12-24.4,9.49-30.22a10,10,0,0,1,2.29-.37"/><path class="cls-24" d="M222.87,66.13c0-3,0-7.28,0-11.55a.78.78,0,0,1,.52-.55c.26,0,.72.09.8.27a19.27,19.27,0,0,1,1.65,4.38,73.06,73.06,0,0,1,.8,9c.1,3.33,0,6.66-.18,10a14.17,14.17,0,0,1-.71,3.7,2,2,0,0,1-1.39,1.07,1.49,1.49,0,0,1-1.72-1.28,15.61,15.61,0,0,1-.3-3.27c.1-3.49.29-7,.51-11.74"/><path class="cls-13" d="M104.59,162c-4.63,0-9.27,0-13.9,0a5.52,5.52,0,0,1-2.31-.32c-.38-.19-.59-1-.61-1.58a1.25,1.25,0,0,1,.75-1A11,11,0,0,1,90.9,159q13.41,0,26.83,0a11.76,11.76,0,0,1,2.38.14c.9.2,1.18.94,1.14,1.81s-.73.93-1.33.93c-4.15.07-8.3.1-12.46.13-1,0-1.91,0-2.87,0"/><path class="cls-25" d="M79.77,251.27A55.81,55.81,0,0,0,95.9,263.73c.8.41,1.94.63,2,1.77.08,1.56-1.59,3.68-3.08,3.78a6.89,6.89,0,0,1-3.16-.61,5.92,5.92,0,0,1-2.08-1.91C86,261.9,82.49,257,79,252.12c-.38-.9,0-1.05.81-.85"/><path class="cls-26" d="M188.41,253.15q-4.87,6.72-9.75,13.43a10.66,10.66,0,0,1-1.27,1.42c-2.4,2.36-6.06,1.73-6.86-1.36-.11-.45-.26-.9-.45-1.52,3.07-1.9,6.28-3.61,9.17-5.76s5.51-4.75,8.24-7.15c.85-.22,1.29,0,.92.94"/><path class="cls-27" d="M164,228a11.74,11.74,0,0,1,2.75-6.86,18.85,18.85,0,0,1,11.05-6.08,4.63,4.63,0,0,1,4.4,1.18c.67.66.52,2.12-.34,2.4a13.21,13.21,0,0,1-3.21.67,15.3,15.3,0,0,0-7.85,3.18,10,10,0,0,0-4.23,7.17c-.08.65-.36,1.37-1.12,1.13-.47-.14-.86-.79-1.14-1.29A5.81,5.81,0,0,1,164,228"/><path class="cls-28" d="M53.84,127.51c2.22-2,4.42-4.07,6.68-6.06,2-1.78,4-3.55,6.15-5.23a5.42,5.42,0,0,1,6.55-.29c-5.36,4.28-10.7,8.58-16.09,12.82-1.83,1.43-2,1.3-3.29-1.24"/><path class="cls-29" d="M210.44,128.23a13.87,13.87,0,0,1,.77-3.14c1.5-2.94,3.12-5.82,4.77-8.68,1-1.64,1.93-1.64,4.27-.2-1.34,4.22-3.65,8-5.92,11.7-1.31,2.17-1.37,2.14-3.89.32"/><path class="cls-30" d="M96.32,91A13.18,13.18,0,0,0,97,88.33c.14-2.06,0-4.14.19-6.2A12.66,12.66,0,0,1,98,79.46c0,3,0,6,0,9a50.52,50.52,0,0,0,1.76,12.7,29.09,29.09,0,0,1,.52,3.19c-2.48-3-3.89-8-4-13.42"/><path class="cls-31" d="M79.77,251.27l-.81.85-10.63-15.2c1.09-.31.84-1.31,1.07-2.06a12,12,0,0,1,1.08,1.52c2.59,5.28,6,10.05,9.29,14.89"/><path class="cls-32" d="M223.39,91a2.63,2.63,0,0,1,2.52,2.82,2.86,2.86,0,0,1-2.66,2.74,3.05,3.05,0,0,1-2.84-3.12,2.91,2.91,0,0,1,3-2.44"/><path class="cls-33" d="M188.41,253.15l-.92-.94,9.33-13.68,1.05,1.15-9.46,13.47"/><path class="cls-34" d="M190.24,234.87l.91,1.9c-1,3-2.84,5.56-5.39,8.64a19,19,0,0,1,.76-2.93c1.2-2.56,2.47-5.08,3.72-7.61"/><path class="cls-35" d="M147.44,205.58a3.09,3.09,0,0,1-1.72,3.14c-5,2.42-10,4.95-15.09,7.21-2.89,1.28-5.24-.12-5.29-3.25-.09-5.4.14-10.82.45-16.23.15-2.62.36-2.61,3.66-3.22,6.54,1.34,11.55,5.65,17.11,8.87,1.25.72,1.06,2.19.88,3.48"/><path class="cls-36" d="M147.44,205.58a5.59,5.59,0,0,0-3.17-3.86c-5-2.76-9.88-5.65-14.81-8.49a4.42,4.42,0,0,1,.47-1.23c.15-.21.57-.24.88-.27a17.65,17.65,0,0,1,15.42,5.92,13.88,13.88,0,0,1,2.33,4.09,3.18,3.18,0,0,1-1.12,3.84"/><path class="cls-37" d="M141.33,223.42c-.39-.08-.78,0-1-.21a2.73,2.73,0,0,1-.79-1.08.94.94,0,0,1,.38-.81,14.75,14.75,0,0,1,2.1-1.06,17.22,17.22,0,0,0,8.91-7.65,4.77,4.77,0,0,1,1.09-1.54,2.06,2.06,0,0,1,1.63-.42,2.37,2.37,0,0,1,.93,1.49,2.28,2.28,0,0,1-.24,1.38,16.5,16.5,0,0,1-11.66,9.77,9.59,9.59,0,0,1-1.35.13"/><path class="cls-38" d="M154.69,204.47c-.39.34-.93,1.16-1.67,1.42-1.06.36-2.14-1.08-2-2.5a2,2,0,0,1,1.66-1.95c1.12-.18,2.1,1.11,2,3"/><path class="cls-39" d="M84.61,123.61A2.81,2.81,0,0,1,82,120.9a3.12,3.12,0,0,1,3.15-2.82,3.05,3.05,0,0,1,2.43,2.51,3,3,0,0,1-2.92,3"/><path class="cls-40" d="M78.93,128.41a2.78,2.78,0,0,1-2.5,2.93,2.51,2.51,0,0,1-2.59-2.73,2.55,2.55,0,1,1,5.09-.2"/><path class="cls-41" d="M67.45,133.83a2.4,2.4,0,0,1,2.63,2.2,2.45,2.45,0,0,1-2.43,2.43,2.32,2.32,0,0,1-.2-4.63"/><path class="cls-42" d="M186.15,121.06a2.77,2.77,0,0,1-5.53-.4,2.76,2.76,0,0,1,2.89-2.55,3.22,3.22,0,0,1,2.64,3"/><path class="cls-43" d="M191.87,131.34a2.75,2.75,0,1,1,2.38-2.92,2.55,2.55,0,0,1-2.38,2.92"/><path class="cls-44" d="M202.78,136.12a2.36,2.36,0,0,1-2.46,2.34,2.32,2.32,0,0,1,0-4.64,2.37,2.37,0,0,1,2.5,2.3"/><path class="cls-45" d="M180,230a2.54,2.54,0,0,1,2.88,2.49,2.75,2.75,0,0,1-2.6,3.27,3,3,0,0,1-3-2.49A3.08,3.08,0,0,1,180,230"/><path class="cls-46" d="M87.81,229.09a3.93,3.93,0,0,1,3,3.72,2.93,2.93,0,0,1-3.17,2.77,3.46,3.46,0,0,1-2.72-3.84c.27-1.5,1.67-2.79,2.88-2.65"/><path class="cls-25" d="M129.12,199.12c.5-.23.7-.39.78-.34,3.85,2.21,7.68,4.45,11.76,6.82a85.24,85.24,0,0,1-11.11,6,.87.87,0,0,1-1.31-.83c-.14-3.93-.08-7.85-.12-11.61"/></g></g></svg>